<svg id="Layer_1" data-name="Layer 1" xmlns="http://www.w3.org/2000/svg" viewBox="0 0 122.89427 84.02345"><defs><style>.cls-1{fill:#fff;}</style></defs><title>contact us</title><path class="cls-1" d="M34.11,3h83a5.8,5.8,0,0,1,5.79,5.79V70.27a5.75992,5.75992,0,0,1-1,3.25,2.32,2.32,0,0,1-.55.82,2.19983,2.19983,0,0,1-.54.38,5.78,5.78,0,0,1-3.7,1.35H68a15.44026,15.44026,0,0,0,.42-4.45h47.22L84.8,39.23,74.62,47.91h0a2.22,2.22,0,0,1-2.84,0L61.1,39.23h0l-9.69,9.71A12.39992,12.39992,0,0,0,47,47.07L57.64,36.41,37.91,20.32a14.00037,14.00037,0,0,0-.68-3.42l-.79-3.49L73.15,43.34,115.26,7.46H35.11ZM17.46,31a61.46035,61.46035,0,0,0,4.73,14.91A51.8901,51.8901,0,0,0,32.61,60.48a1.47,1.47,0,0,0,1.17.45,5.30982,5.30982,0,0,0,2-.67,17.91113,17.91113,0,0,0,2.1-1.36c3.14-2.18,7-4.89,10.29-1.85.08.07.12.14.2.2L58.84,68.78a1.12928,1.12928,0,0,1,.1.13,6.09,6.09,0,0,1,.79,5.77,14.30992,14.30992,0,0,1-3.94,5.76,13.75992,13.75992,0,0,1-7.94,3.46,29.79988,29.79988,0,0,1-8.28-.4,27.16,27.16,0,0,1-11.31-4.73,54.16037,54.16037,0,0,1-9.86-9.43l-.24-.29c-1.52-1.8-3.16-3.73-4.69-5.88A78.72011,78.72011,0,0,1,1,34.34C-.72,25.59-.37,16.85,3.33,9.62a17.13025,17.13025,0,0,1,9-8.69c3.44-1.32,7.51-1.34,12.13.63a1.67,1.67,0,0,1,1,1.24l3.73,16.58a4.57,4.57,0,0,1-.82,4.88,9.43,9.43,0,0,1-4.29,2.5c-.56.24-1.21.45-1.9.67-2.27.74-4.86,1.61-4.73,3.65h0Zm70.72,5.33,30.26,31.73V10.58L88.18,36.36Z" transform="translate(-0.00574 -0.00058)"/></svg>