<svg id="Camada_1" data-name="Camada 1" xmlns="http://www.w3.org/2000/svg" xmlns:xlink="http://www.w3.org/1999/xlink" viewBox="0 0 1301.4252 1301.4252"><defs><style>.cls-1{fill-rule:evenodd;fill:url(#Gradiente_sem_nome);}.cls-2{fill:#fff;}</style><linearGradient id="Gradiente_sem_nome" x1="-65909.97307" y1="75571.31008" x2="-65909.97307" y2="68670.08156" gradientTransform="matrix(0.19834, 0, 0, -0.19834, 13881.43872, 15576.07795)" gradientUnits="userSpaceOnUse"><stop offset="0" stop-color="#00b2ff"/><stop offset="1" stop-color="#006aff"/></linearGradient></defs><title>facebook</title><path class="cls-1" d="M809.0001,599.28757c359.378,0,650.7126,291.33459,650.7126,650.7126s-291.33459,650.71259-650.7126,650.71259-650.7126-291.33458-650.7126-650.71259S449.62209,599.28757,809.0001,599.28757Z" transform="translate(-158.2875 -599.28757)"/><path class="cls-2" d="M893.54933,1895.25034V1392.62867h141.69841l18.78243-176.89949H893.549l.23785-88.54582c0-46.13949,4.38318-70.85037,70.6559-70.85037h88.59346V879.40367H911.306c-170.24317,0-230.15513,85.81093-230.15513,230.13925v106.19981H575.0262v176.91538H681.15086v495.46563a656.14083,656.14083,0,0,0,212.3977,7.1266Z" transform="translate(-158.2875 -599.28757)"/></svg>