<svg id="Capa_1" data-name="Capa 1" xmlns="http://www.w3.org/2000/svg" viewBox="0 0 394.19632 142.64049"><defs><style>.cls-1{fill:#fff;}</style></defs><title>handdrawn arrow</title><path class="cls-1" d="M15.30546,158.92638c5.96184,20.98507,9.54542,43.2225,20.44423,62.675,1.51871,2.72875,6.11827,3.67218,7.24284.04341,2.955-7.79209,6.79542-15.14662,10.01708-22.58661C129.52734,287.35187,293.4512,312.55974,390.88633,242.963c4.40256-2.23585,9.07231-4.12005,13.20767-6.70755,1.75826-1.336,2.01163-3.19251.94284-4.59912l3.16487-2.40476c2.546-2.48922-.39314-6.35739-3.20635-4.21982A178.78682,178.78682,0,0,1,386.344,236.98487c-54.01159,21.626-114.79986,19.00343-171.31152,8.13925-49.16938-9.23229-117.27079-22.9384-146.70379-68.24465l-.2672-.35165c4.79674-9.747,6.04977-21.23794,7.8376-32.025.25337-1.85654-1.8842-4.66975-4.17685-4.03708-17.90554,4.17477-36.61277,7.29561-54.1518,13.41153A3.63584,3.63584,0,0,0,15.30546,158.92638Zm8.22921,2.06908c14.19159-4.68266,29.10058-7.69,43.74207-11.05046-1.534,8.93106-3.68692,17.77767-6.19145,26.89146-1.04113,3.00977,3.57182,6.16081,5.58345,2.96829h0c8.451,23.53108,33.00689,37.59863,55.05967,46.912,28.33953,11.74725,57.80408,19.86631,88.22645,25.59356,41.47659,7.86674,87.44019,12.8788,130.59206,6.1604-96.95365,33.73176-206.10879,9.06424-284.03461-64.29266a2.79846,2.79846,0,0,0-3.44588-.15508,3.26132,3.26132,0,0,0-4.5853,1.26535C45.78,201.22341,42.27689,206.103,39.309,211.687,32.05328,195.56785,28.49676,177.74721,23.53467,160.99546Z" transform="translate(-14.97851 -140.37491)"/></svg>