<svg id="Camada_1" data-name="Camada 1" xmlns="http://www.w3.org/2000/svg" xmlns:xlink="http://www.w3.org/1999/xlink" viewBox="0 0 628.38599 456.69818"><defs><style>.cls-1{fill:url(#Gradiente_sem_nome_40);}.cls-2{fill:url(#Gradiente_sem_nome_51);}.cls-3{fill:url(#Gradiente_sem_nome_46);}</style><linearGradient id="Gradiente_sem_nome_40" x1="65.65328" y1="322.21383" x2="443.78118" y2="-55.91407" gradientTransform="matrix(1, 0, 0, -1, -124.61377, 381.17432)" gradientUnits="userSpaceOnUse"><stop offset="0" stop-color="#00ff6a"/><stop offset="1" stop-color="#008cff"/></linearGradient><linearGradient id="Gradiente_sem_nome_51" x1="336.90472" y1="402.92772" x2="617.78924" y2="122.04327" gradientTransform="matrix(1, 0, 0, -1, 0, 458)" xlink:href="#Gradiente_sem_nome_40"/><linearGradient id="Gradiente_sem_nome_46" x1="362.53316" y1="246.83872" x2="558.21055" y2="51.16128" xlink:href="#Gradiente_sem_nome_40"/></defs><path class="cls-1" d="M263.07471,267.99652q-11.80719-22.40973-51.872-41.153,78.007-25.09333,78.007-108.06855,0-54.20151-36.35019-86.48828Q216.50375,0,155.74872,0H0V456.69818H105.07071V237.21539h18.0424q50.40723,0,50.41277,78.96027l.53064,34.12689.5307,27.10077q0,47.51,10.87851,79.29486H299.55762q-15.38915-24.7587-20.43039-101.71155Q274.88189,290.42012,263.07471,267.99652ZM126.29707,199.40814H105.07069V42.15674h21.22638q59.69928,0,59.69924,78.62567Q185.99622,199.40808,126.29707,199.40814Z"/><polygon class="cls-2" points="628.386 45.837 628.386 0 391.977 0 391.977 456.698 497.048 456.698 497.048 243.907 608.486 243.907 608.486 198.07 497.048 198.07 497.048 45.837 628.386 45.837"/><path class="cls-3" d="M338.13718,42.17432H333.379c-5.234,0-9.51636,5.4-9.51636,12v356c0,6.6,4.28238,12,9.51636,12h4.75818c5.234,0,9.51635-5.4,9.51635-12v-356C347.65353,47.57432,343.37115,42.17432,338.13718,42.17432Z"/></svg>