<svg id="Camada_1" data-name="Camada 1" xmlns="http://www.w3.org/2000/svg" xmlns:xlink="http://www.w3.org/1999/xlink" viewBox="0 0 628.38623 456.69818"><defs><style>.cls-1{fill:url(#Gradiente_sem_nome_14);}.cls-2{fill:url(#Gradiente_sem_nome_14-2);}.cls-3{fill:url(#Gradiente_sem_nome_14-3);}</style><linearGradient id="Gradiente_sem_nome_14" x1="65.65307" y1="135.78639" x2="443.78095" y2="513.91427" gradientUnits="userSpaceOnUse"><stop offset="0" stop-color="#00d36e"/><stop offset="1" stop-color="#008be0"/></linearGradient><linearGradient id="Gradiente_sem_nome_14-2" x1="336.90492" y1="55.07229" x2="617.78934" y2="335.95671" xlink:href="#Gradiente_sem_nome_14"/><linearGradient id="Gradiente_sem_nome_14-3" x1="362.53316" y1="211.1613" x2="558.21054" y2="406.83868" xlink:href="#Gradiente_sem_nome_14"/></defs><title>logo</title><path class="cls-1" d="M387.68848,344.8222q-11.80718-22.40972-51.872-41.153,78.00706-25.09332,78.007-108.06854,0-54.20151-36.3502-86.48828Q341.11751,76.82565,280.3625,76.82568H124.61377V533.52386h105.0707V314.04108h18.0424q50.4072,0,50.41275,78.96026l.53063,34.12689.53069,27.10077q0,47.51,10.87851,79.29486h114.0919q-15.38916-24.75869-20.4304-101.71154Q399.49565,367.24586,387.68848,344.8222ZM250.91085,276.23383H229.68447V118.98242h21.22638q59.69929,0,59.69924,78.62567T250.91085,276.23383Z" transform="translate(-124.61377 -76.82568)"/><polygon class="cls-2" points="628.386 45.837 628.386 0 391.977 0 391.977 456.698 497.048 456.698 497.048 243.907 608.486 243.907 608.486 198.07 497.048 198.07 497.048 45.837 628.386 45.837"/><path class="cls-3" d="M462.75094,119h-4.75818c-5.234,0-9.51637,5.4-9.51637,12V487c0,6.6,4.28239,12,9.51637,12h4.75818c5.234,0,9.51636-5.4,9.51636-12V131C472.2673,124.4,467.98492,119,462.75094,119Z" transform="translate(-124.61377 -76.82568)"/></svg>