<svg id="Capa_1" data-name="Capa 1" xmlns="http://www.w3.org/2000/svg" viewBox="0 0 392.52798 482.13898"><defs><style>.cls-1{fill:#fff;}</style></defs><title>PDF</title><path class="cls-1" d="M142.024,310.194c0-8.007-5.556-12.782-15.359-12.782a34.00537,34.00537,0,0,0-8.132.773v25.69a30.81157,30.81157,0,0,0,6.588.504C135.57,324.379,142.024,319.1,142.024,310.194Z" transform="translate(-44.806)"/><path class="cls-1" d="M202.709,297.681a40.55552,40.55552,0,0,0-8.905.772v56.896a35.59808,35.59808,0,0,0,6.841.394c17.809.126,29.424-9.677,29.424-30.449C230.195,307.231,219.611,297.681,202.709,297.681Z" transform="translate(-44.806)"/><path class="cls-1" d="M315.458,0H121.811A51.39008,51.39008,0,0,0,70.496,51.315V241.069H65.484a20.6752,20.6752,0,0,0-20.678,20.679V387.152a20.67349,20.67349,0,0,0,20.678,20.677h5.012v22.995a51.37015,51.37015,0,0,0,51.315,51.315H386.034a51.36951,51.36951,0,0,0,51.3-51.315V121.449ZM99.053,284.379a162.089,162.089,0,0,1,26.579-1.796c12.128,0,20.772,2.315,26.58,6.965a25.42161,25.42161,0,0,1,9.292,20.127c0,8.51-2.837,15.745-7.999,20.646-6.714,6.32-16.643,9.157-28.258,9.157a50.93074,50.93074,0,0,1-6.714-.379v31.096H99.053ZM386.034,450.713H121.811a19.90556,19.90556,0,0,1-19.874-19.889V407.829h246.31a20.67372,20.67372,0,0,0,20.679-20.677V261.748a20.67479,20.67479,0,0,0-20.679-20.679H101.937V51.315a19.89963,19.89963,0,0,1,19.874-19.858l181.89-.19V98.5a35.59809,35.59809,0,0,0,35.587,35.587l65.862-.189.741,296.925A19.89194,19.89194,0,0,1,386.034,450.713ZM174.065,369.801V284.379a177.11534,177.11534,0,0,1,26.58-1.796c16.516,0,27.226,2.963,35.618,9.282,9.031,6.714,14.704,17.416,14.704,32.781,0,16.643-6.06,28.133-14.453,35.224-9.157,7.612-23.096,11.222-40.125,11.222A170.24207,170.24207,0,0,1,174.065,369.801Zm140.827-50.575v15.996h-31.23v34.973h-19.74V283.229h53.16v16.122h-33.42v19.875Z" transform="translate(-44.806)"/></svg>