<svg id="Layer_1" data-name="Layer 1" xmlns="http://www.w3.org/2000/svg" viewBox="0 0 496 499.31201"><defs><style>.cls-1{fill:#fff;}</style></defs><title>skill</title><path class="cls-1" d="M497.656,323.312v-144H436.16A200.76,200.76,0,0,0,310.44,60.784L249.656,0,188.72,60.936a199.26668,199.26668,0,0,0-47.56,22.568L100.968,43.312H41.656v59.312L81.832,142.8a200.11966,200.11966,0,0,0-18.88,37.4,71.89984,71.89984,0,0,0-.128,142.208,199.87277,199.87277,0,0,0,141.32,123.584l-32.808,53.32h156.64L295.168,446a197.0853,197.0853,0,0,0,63.04-26.824l27.856,27.856a41.93992,41.93992,0,0,0,59.312-59.312l-27.888-27.888a199.64978,199.64978,0,0,0,18.528-36.52h61.64Zm-16-128v112h-112v-112h112Zm-179.312-120L257.656,120V78.624l24-24ZM249.656,22.624l20.688,20.688L249.656,64,228.968,43.312Zm-32,32,24,24V120L196.968,75.312ZM180.104,81.072l69.552,69.552,69.592-69.592a184.95339,184.95339,0,0,1,99.728,98.28h-65.32V296L152.736,95.08A182.225,182.225,0,0,1,180.104,81.072ZM105.656,70.624l248,248v4.688h4.688l4,4L349.656,340,92.968,83.312Zm-48-11.312H94.344L57.656,96Zm11.312,48L81.656,94.624,338.344,351.312,325.656,364Zm4.688,88a55.79947,55.79947,0,0,1,39.112,16H34.544A55.79955,55.79955,0,0,1,73.656,195.312Zm24,32v48h-48v-48h48Zm-64,63.12a55.81442,55.81442,0,0,1,0-78.232Zm.888.88h78.232a55.81442,55.81442,0,0,1-78.232,0Zm264.792,192h-99.36l49.68-80.736Zm-13.088-51.8-36.592-59.464-36.592,59.464A183.85287,183.85287,0,0,1,80.216,322.976a71.96561,71.96561,0,0,0,.112-143.328A183.14907,183.14907,0,0,1,93.392,154.36L346.664,407.632A181.64638,181.64638,0,0,1,286.248,431.512ZM113.656,290.424V212.2a55.80463,55.80463,0,0,1,0,78.224Zm236,97.576-12.688-12.688,36.688-36.688,12.688,12.688Zm84.408,11.032a25.94233,25.94233,0,0,1-36.688,36.688l-36.408-36.408,36.688-36.688ZM405.92,348.264l-24.952-24.952H418.84A182.89232,182.89232,0,0,1,405.92,348.264Z" transform="translate(-1.656)"/><path class="cls-1" d="M425.656,204.216l-54.44,87.096H480.088Zm0,30.192,25.56,40.904H400.088Z" transform="translate(-1.656)"/><rect class="cls-1" x="240" y="451.31201" width="16" height="16"/></svg>