<svg id="Camada_1" data-name="Camada 1" xmlns="http://www.w3.org/2000/svg" viewBox="0 0 1646.29787 1646.29787"><defs><style>.cls-1{fill:#1da1f2;}.cls-2{fill:#fff;}</style></defs><title>twitter</title><circle class="cls-1" cx="823.14894" cy="823.14894" r="823.14894"/><path class="cls-2" d="M1093.1428,1271.68317c372.63283,0,576.41289-308.82512,576.41289-576.62769q0-13.15572-.574-26.195A412.03961,412.03961,0,0,0,1770.03679,563.9158a403.74244,403.74244,0,0,1-116.34023,31.90888,203.38171,203.38171,0,0,0,89.08758-112.09351,406.25166,406.25166,0,0,1-128.643,49.19294,202.31171,202.31171,0,0,0-147.87786-64.03049c-111.87672,0-202.6,90.75936-202.6,202.6341a202.37127,202.37127,0,0,0,5.25627,46.21057c-168.37507-8.47545-317.67786-89.11967-417.59907-211.74376a202.88658,202.88658,0,0,0,62.72194,270.55813,201.04243,201.04243,0,0,1-91.75081-25.34809c-.03011.851-.03011,1.67985-.03011,2.589,0,98.147,69.83065,180.09378,162.52877,198.66233a202.23938,202.23938,0,0,1-91.49394,3.47806c25.79162,80.52379,100.57949,139.12144,189.2496,140.75909a406.32617,406.32617,0,0,1-251.61632,86.74944,411.22912,411.22912,0,0,1-48.32391-2.80773,573.30683,573.30683,0,0,0,310.54707,91.03434" transform="translate(-441.82979 -15.44681)"/></svg>