<svg id="Camada_1" data-name="Camada 1" xmlns="http://www.w3.org/2000/svg" viewBox="0 0 980.00353 980.76105"><defs><style>.cls-1{fill:#fff;}</style></defs><title>cellphone</title><path class="cls-1" d="M191.64,19.47C101.19,58.03,34.58,113.19,14.95,165.08c-4.44,11.69-5.14,18.23-4.91,46.28C10.27,272.13,25,339.44,54.68,414.7,95.11,517.06,154.71,609.38,240.96,703.34,394.75,870.68,601.36,981,778.75,989.88c33.19,1.87,48.61-1.17,74.56-14.72,43.24-22.44,96.53-93.72,128.55-171.79,9.35-22.44,10.05-27.11,5.14-36.46-3.98-7.72-219.7-161.04-233.02-165.71-9.58-3.04-20.33-2.1-30.62,3.04-3.51,1.87-22.67,23.37-42.77,47.68-40.9,49.78-46.51,54.22-69.18,54.46-12.39,0-15.89-1.17-44.64-17.06C437.28,618.5,380.96,562.17,310.14,432.69c-15.89-28.98-17.06-32.26-17.06-44.88.23-22.44,5.38-28.98,54.46-69.18,23.84-19.4,45.11-38.8,47.68-42.77,4.91-8.65,5.61-27.11,1.4-35.53-1.64-3.04-37.86-54.92-80.4-114.99C266.44,54.52,236.75,14.56,232.55,12.45,222.96,7.55,217.58,8.48,191.64,19.47Z" transform="translate(-10.00155 -9.61963)"/></svg>