<svg id="Camada_1" data-name="Camada 1" xmlns="http://www.w3.org/2000/svg" viewBox="0 0 1000 1000"><defs><style>.cls-1,.cls-2{fill:#fff;}.cls-2{fill-rule:evenodd;}</style></defs><title>clock</title><path class="cls-1" d="M500,0C223.8576,0,0,223.8576,0,500s223.8576,500,500,500,500-223.85767,500-500S776.1424,0,500,0Zm0,901C278.53381,901,99,721.46619,99,500S278.53381,99,500,99,901,278.53381,901,500,721.46619,901,500,901Z"/><path class="cls-2" d="M682.76261,492.50106H508.25108L360.97246,345.22244a35.34081,35.34081,0,0,0-49.83311,0h-.00007a35.341,35.341,0,0,0,0,49.83317L468.94445,552.86079a35.2072,35.2072,0,0,0,28.31982,10.115H682.76261A35.341,35.341,0,0,0,718,527.73845v-.00008A35.341,35.341,0,0,0,682.76261,492.50106Z"/></svg>