<svg id="Camada_1" data-name="Camada 1" xmlns="http://www.w3.org/2000/svg" viewBox="0 0 980.01465 978.40001"><defs><style>.cls-1{fill:#fff;}</style></defs><title>essay</title><path class="cls-1" d="M904.2,989.2c-.1-1-676,0-676,0s-86.3-1.9-97.8-98.3c.3-1.8,0-640.9,0-640.9s-88.2,1.4-89.3,0C-54.4,80.5,100.6,10.8,100.6,10.8H721.4s73.5,13.4,80.8,94c-.1,1.3,0,653.7,0,653.7s136.2.7,136.1,0C973.8,760.4,1049.80005,931.6,904.2,989.2ZM113.4,53.5S24.1,64,66.6,207.3c.3-.4,500.7-.1,501.7,0C535,93.9,589.6,53.5,589.6,53.5ZM763.9,886.7c1-36.9,0-773.3,0-773.3s-34.4-73.6-80.8-64.1c-152.9,23.9-50.3,172-63.8,205.1,1.3,1.4-446.4,0-446.4,0s.5,615.4,0,623.8c-.5,8.3,17.5,63.4,55.3,64.1,37.8.6,561.2,0,561.2,0S762.9,923.6,763.9,886.7Zm153-81.2H802.2s-23.4,153.2,93.5,141C989.7,896.4,916.9,805.5,916.9,805.5Zm-496.1-171a440.89447,440.89447,0,0,0,66.5-57q30-31.35,59.9,0a445.86411,445.86411,0,0,0,66.5,57q36,25.2,1.1,50.5l-4,201.6-93.5-47L428,882.4l-3.8-194.1c-1.1-.8-2.2-1.7-3.4-2.5Q384.2,660.15,420.8,634.5Zm153.7,12.8a255.27977,255.27977,0,0,1-39.4-33.5q-17.7-18.45-35.5,0a265.93158,265.93158,0,0,1-39.4,33.5c-14.5,10-14.5,20.1,0,30.1a260.34077,260.34077,0,0,1,39.4,33.4c11.8,12.3,23.7,12.3,35.5,0a259.47342,259.47342,0,0,1,39.4-33.4C588.9,667.4,588.9,657.3,574.5,647.3ZM457.8,831.1l21.3-8.5,25.5-17.1,12.8-8.5,17,8.5,42.5,25.6V714.7c-10.3,9-20.2,18.3-29.6,28.1q-30,31.35-59.9,0c-9.4-9.8-19.3-19.1-29.6-28.1V831.1Zm-155.2-329a23.50021,23.50021,0,0,1,0-47H617.2a23.50021,23.50021,0,0,1,0,47ZM619.3,378.2H291.9a21.40023,21.40023,0,0,1,0-42.8H619.3a21.40023,21.40023,0,0,1,0,42.8Z" transform="translate(-10.01144 -10.8)"/></svg>