<svg id="Camada_1" data-name="Camada 1" xmlns="http://www.w3.org/2000/svg" viewBox="0 0 29.9011 29.21554"><defs><style>.cls-1{fill:#fff;fill-rule:evenodd;}</style></defs><title>github</title><path class="cls-1" d="M25,10a14.9741,14.9741,0,0,0-4.7,29.2c.8.1,1-.3,1-.7V35.9c-4.2.9-5.1-2-5.1-2a4.236,4.236,0,0,0-1.7-2.2c-1.4-.9.1-.9.1-.9a3.1549,3.1549,0,0,1,2.3,1.5,3.179,3.179,0,0,0,4.4,1.2,2.74433,2.74433,0,0,1,1-2c-3.3-.4-6.8-1.7-6.8-7.4a5.96258,5.96258,0,0,1,1.5-4,5.21252,5.21252,0,0,1,.1-4s1.3-.4,4.1,1.5a15.82725,15.82725,0,0,1,3.8-.5,15.82725,15.82725,0,0,1,3.8.5c2.9-1.9,4.1-1.5,4.1-1.5a5.21252,5.21252,0,0,1,.1,4,5.512,5.512,0,0,1,1.5,4c0,5.8-3.5,7-6.8,7.4a3.85078,3.85078,0,0,1,1,2.8v4.1a.71776.71776,0,0,0,1,.7A14.93529,14.93529,0,0,0,25,10Z" transform="translate(-10 -10)"/></svg>