<svg id="Layer_1" data-name="Layer 1" xmlns="http://www.w3.org/2000/svg" viewBox="0 0 122.88 113.52999"><defs><style>.cls-1{fill:#fff;}</style></defs><title>goal</title><path class="cls-1" d="M51.66,10.21h0a51.6264,51.6264,0,0,1,14.65,2.11q1.11.33,2.25.72,1.26.435,2.49.93l-3.38,6.21a44.48692,44.48692,0,0,0-16-2.95h-.01a44.46241,44.46241,0,0,0-17.37,3.51c-.87.37-1.73.76-2.56,1.18A44.73306,44.73306,0,0,0,20.11,30.3h0l-.02.02a42.83534,42.83534,0,0,0-3.18,3.55,47.0139,47.0139,0,0,0-2.81,3.9,44.29309,44.29309,0,0,0-7.08,24.1v.01h0a44.46244,44.46244,0,0,0,3.51,17.37c.37.87.76,1.73,1.18,2.56A44.70414,44.70414,0,0,0,20.1,93.43h0l.02.02a44.83686,44.83686,0,0,0,3.55,3.19,47.0139,47.0139,0,0,0,3.9,2.81,44.46366,44.46366,0,0,0,24.09,7.05h.01a44.46241,44.46241,0,0,0,17.37-3.51c.87-.37,1.73-.76,2.56-1.18a44.7333,44.7333,0,0,0,11.62-8.38h.01l.03-.03a44.57248,44.57248,0,0,0,3.18-3.54,47.0139,47.0139,0,0,0,2.81-3.9A44.36208,44.36208,0,0,0,96.3,61.9l7.01-1.08c.01.35.01.7.01,1.05v.01h0a51.50186,51.50186,0,0,1-4.06,20.1c-.42,1-.88,1.99-1.37,2.97a51.79535,51.79535,0,0,1-9.7,13.45h0l-.02.02a51.60371,51.60371,0,0,1-36.5,15.11h0a51.50182,51.50182,0,0,1-20.1-4.06c-1-.42-1.99-.88-2.97-1.37a51.79557,51.79557,0,0,1-13.45-9.7h0l-.02-.03A51.69627,51.69627,0,0,1,0,61.87v-.01H0a51.53876,51.53876,0,0,1,4.06-20.1c.42-1,.88-1.99,1.37-2.97a51.79557,51.79557,0,0,1,9.7-13.45h0l.02-.02a53.27237,53.27237,0,0,1,4.11-3.69,51.5844,51.5844,0,0,1,32.4-11.42Zm4.22,49.33L88.3,0l4.19,33.81L122.88,49.2l-67,10.34ZM51.66,45.52h.01a16.41009,16.41009,0,0,1,2.12.14L49.96,52.7a8.97294,8.97294,0,0,0-1.93.58c-.18.08-.36.16-.54.25a9.34291,9.34291,0,0,0-2.43,1.75h0l-.02.02c-.23.23-.44.47-.65.72a8.13142,8.13142,0,0,0-.59.82,9.29532,9.29532,0,0,0-1.47,5.03v.01h0a9.16451,9.16451,0,0,0,.74,3.63c.08.19.16.37.25.54a9.34291,9.34291,0,0,0,1.75,2.43h0l.02.02a8.79915,8.79915,0,0,0,.72.65,8.12985,8.12985,0,0,0,.82.59,9.29531,9.29531,0,0,0,5.03,1.47h0a9.33611,9.33611,0,0,0,3.63-.73c.19-.08.36-.16.54-.25a9.34314,9.34314,0,0,0,2.43-1.75h0l.02-.02c.13-.13.25-.26.36-.38s.22-.26.33-.4l8.41-1.3a14.78655,14.78655,0,0,1-.66,1.87c-.13.31-.28.63-.43.94a16.23926,16.23926,0,0,1-3.07,4.26h0l-.03.02c-.41.4-.83.79-1.28,1.15a16.31026,16.31026,0,0,1-10.25,3.61h0a16.2023,16.2023,0,0,1-6.36-1.29c-.31-.13-.63-.28-.94-.43a16.239,16.239,0,0,1-4.26-3.07h0l-.03-.03a15.63525,15.63525,0,0,1-1.15-1.28,16.31026,16.31026,0,0,1-3.61-10.25v-.01h0a16.20209,16.20209,0,0,1,1.29-6.36c.13-.31.28-.63.43-.94a16.18884,16.18884,0,0,1,3.07-4.25h0a16.79573,16.79573,0,0,1,2.74-2.2,16.133,16.133,0,0,1,8.82-2.6Zm0-17.8h0a33.77471,33.77471,0,0,1,8.83,1.16c.46.12.91.25,1.36.4.24.08.49.16.73.24l-3.42,6.29a27.30421,27.30421,0,0,0-7.51-1.05h0a27.13094,27.13094,0,0,0-10.56,2.13q-.765.33-1.56.72l-.04.02a27.15064,27.15064,0,0,0-7.02,5.08h0l-.02.02a28.16647,28.16647,0,0,0-1.93,2.15,28.4936,28.4936,0,0,0-1.71,2.37,27.01371,27.01371,0,0,0-4.28,14.64v.01h0a27.13094,27.13094,0,0,0,2.13,10.56q.33.795.72,1.56a27.19191,27.19191,0,0,0,5.1,7.06h0a27.29526,27.29526,0,0,0,4.54,3.66A27.16884,27.16884,0,0,0,51.66,89h.01a27.13094,27.13094,0,0,0,10.56-2.13q.795-.33,1.56-.72a27.19213,27.19213,0,0,0,7.06-5.1h0a26.52346,26.52346,0,0,0,1.95-2.17,28.49118,28.49118,0,0,0,1.71-2.37,26.94774,26.94774,0,0,0,4.15-11.89l7.12-1.1a34.22689,34.22689,0,0,1-2.64,11.64c-.28.66-.58,1.32-.91,1.96a34.11624,34.11624,0,0,1-6.41,8.89h0l-.02.02c-.86.86-1.77,1.67-2.71,2.44a33.11623,33.11623,0,0,1-2.98,2.15,34.06224,34.06224,0,0,1-18.43,5.4h0a34.17053,34.17053,0,0,1-13.29-2.68c-.66-.28-1.32-.58-1.96-.91a34.116,34.116,0,0,1-8.89-6.41h0l-.02-.03a34.524,34.524,0,0,1-4.58-5.69,33.9523,33.9523,0,0,1-5.4-18.43v-.01h0a33.99683,33.99683,0,0,1,2.69-13.29c.28-.66.58-1.32.91-1.96a34.11576,34.11576,0,0,1,6.41-8.89h0l.02-.02a34.52445,34.52445,0,0,1,5.69-4.58,33.80079,33.80079,0,0,1,18.4-5.4Z"/></svg>