<svg id="Camada_1" data-name="Camada 1" xmlns="http://www.w3.org/2000/svg" viewBox="0 0 980.1001 979.39993"><defs><style>.cls-1{fill:#fff;}</style></defs><title>grade</title><path class="cls-1" d="M837.3,543.9a363.99253,363.99253,0,0,0,38.8-163.1c0-204.6-168.4-370.5-376.1-370.5S123.9,176.2,123.9,380.9A363.99193,363.99193,0,0,0,162.7,544L10,804.5s96.8,19.4,195,39.6C270.5,917,335.7,989.7,335.7,989.7l140.4-239.5c8,.5,15.8,1.2,23.9,1.2s16-.7,23.9-1.2l140.4,239.5s65.2-72.7,130.7-145.6c98.2-20.2,195.1-39.6,195.1-39.6ZM328.4,878.6s-47-44.6-91.2-87.5c-62.7-17.8-126-36-126-36L200,603.7A375.38756,375.38756,0,0,0,409.6,740.1ZM500,683.9c-168.9,0-305.8-137.2-305.8-306.4S331.1,71.1,500,71.1,805.8,208.3,805.8,377.5,668.9,683.9,500,683.9ZM762.8,791.1c-44.2,43-91.2,87.5-91.2,87.5L590.5,740.1a376.42657,376.42657,0,0,0,209.6-136.4l88.7,151.4C888.7,755.1,825.5,773.2,762.8,791.1ZM500,163.3c-118.3,0-214.3,95.9-214.3,214.3s96,214.2,214.3,214.2,214.3-95.9,214.3-214.3S618.3,163.3,500,163.3Zm0,367.3a153,153,0,1,1,153-153A152.99945,152.99945,0,0,1,500,530.6Z" transform="translate(-10 -10.30002)"/></svg>