<svg id="Camada_1" data-name="Camada 1" xmlns="http://www.w3.org/2000/svg" viewBox="0 0 979.98491 733.06747"><defs><style>.cls-1{fill:#fff;}</style></defs><title>study</title><path class="cls-1" d="M947.7,366.3v156.4l37.7,43.2L913,628.6l-66.2-62.7,39.8-44.3V392.2c-213.9,87.2-271.8,114.4-319.2,135.5-47.4,21.2-81.6,21.1-128.6,3.5-47-17.5-260.3-98.4-371.5-151-74.2-35.1-79-57.4,1.3-87.2,104.7-39.4,267.2-102.4,359-136.8,54.3-21.7,83-33.6,132.9-8.8,89,36.4,281.8,111.9,382.9,153.2,88,37.9,28.8,50.4,4.3,65.7ZM577.8,592.6c51.7-21.1,121.5-56,197.5-88.3V763.1S677,866.6,504.1,866.6c-186.2,0-286.7-103.5-286.7-103.5V521.5c58.7,23.7,124.6,44,204.3,71,49.1,17.4,111.50006,23.3,156.1.1Z" transform="translate(-10.00503 -133.53251)"/></svg>