<svg id="Camada_2" data-name="Camada 2" xmlns="http://www.w3.org/2000/svg" viewBox="0 0 96.90416 113.62169"><defs><style>.cls-1{fill:#fff;stroke:#000;stroke-miterlimit:10;stroke-width:3px;}</style></defs><title>hand</title><path class="cls-1" d="M36.11,73.18a3.08,3.08,0,1,1-6.16,0V67.49h.01a3.461,3.461,0,0,1-.47-.31c-1.95-1.56-4.08-3.29-5.94-4.81-2.69-2.2-5.8-4.76-7.97-6.55a11.182,11.182,0,0,0-4.75-2.39,4.71117,4.71117,0,0,0-2.67.12A2.75992,2.75992,0,0,0,6.71,55.03,9.232,9.232,0,0,0,6.17,59.35a16.50793,16.50793,0,0,0,1.48,5.33,35.36492,35.36492,0,0,0,3.89,6.59,2.89327,2.89327,0,0,1,.19.29l23.32,33.31a3.08588,3.08588,0,0,1,.53,1.4h.01c.46,3.85,1.28,6.73,2.49,8.54a3.85373,3.85373,0,0,0,3.42,1.94h.07v-.01H77.95a2.25857,2.25857,0,0,1,.26.01,10.99948,10.99948,0,0,0,6.25-2.02,20.01625,20.01625,0,0,0,5.72-6.7,1.405,1.405,0,0,1,.1-.16c.67-1.15,1.55-2.6,2.41-4.02,3.72-6.13,6.96-11.45,7.35-19.04L99.8,74.34a3.409,3.409,0,0,1-.03-.45c0-.14.02-1.13.03-2.46.09-6.92.19-15.48-6.14-16.56H89.57c-.02,1.95-.15,3.93-.27,5.86-.11,1.71-.21,3.37006-.21,4.95a3.08,3.08,0,0,1-6.16,0c0-1.58.12-3.42.24-5.33.41-6.50995.89-13.99-4.32995-14.93H74.8a2.83932,2.83932,0,0,1-.66-.07c.04,2.36-.12,4.81006-.27,7.16-.11,1.71-.21,3.37-.21,4.95a3.08,3.08,0,0,1-6.16,0c0-1.58.12-3.42.24-5.33.41-6.51.89-13.99-4.33-14.93H59.36a2.97484,2.97484,0,0,1-.8-.11V49a3.08,3.08,0,1,1-6.16,0V17.05c0-5.35-2.18-8.73-4.97-10.14a6.99387,6.99387,0,0,0-6.4-.01C38.27,8.3,36.11,11.69,36.11,17.18Z" transform="translate(-4.6367 -4.63)"/></svg>