<svg id="Camada_1" data-name="Camada 1" xmlns="http://www.w3.org/2000/svg" viewBox="0 0 2500 2500"><defs><style>.cls-1{fill:#1da1f2;}.cls-2{fill:#fff;}</style></defs><title>linkedin</title><rect class="cls-1" width="2500" height="2500" rx="322.34043"/><path class="cls-2" d="M660.09989,368.29787c-110.649,0-200.37188,90.43562-200.37188,201.99562,0,111.54779,89.71056,201.98959,200.37188,201.98959,110.65513,0,200.36561-90.43577,200.35936-201.98959C860.45925,458.73349,770.74877,368.29787,660.09989,368.29787Z"/><path class="cls-2" d="M1702.64543,882.25022c-232.12037,0-329.87642,180.82814-329.87642,180.82814V915.64147H1047.78312V2010.33476H1372.769V1435.71158c0-153.95148,70.85466-245.57725,206.4836-245.57725,124.6202,0,184.48511,87.975,184.48511,245.57725v574.62318h337.19654l.00618-693.14386C2100.94044,1023.98456,1934.772,882.25022,1702.64543,882.25022Z"/><rect class="cls-2" x="492.2948" y="915.64147" width="338.8395" height="1094.69329"/></svg>