<svg id="Capa_1" data-name="Capa 1" xmlns="http://www.w3.org/2000/svg" xmlns:xlink="http://www.w3.org/1999/xlink" viewBox="0 0 221.50599 297.00101"><defs><style>.cls-1{fill:url(#Gradiente_sem_nome_35);}.cls-2{fill:url(#Gradiente_sem_nome_35-2);}</style><linearGradient id="Gradiente_sem_nome_35" x1="23.8386" y1="41.12489" x2="197.66769" y2="214.95398" gradientUnits="userSpaceOnUse"><stop offset="0" stop-color="#00ff6a"/><stop offset="0.17806" stop-color="#00fc6e"/><stop offset="0.34146" stop-color="#00f479"/><stop offset="0.4991" stop-color="#00e58b"/><stop offset="0.65324" stop-color="#00d1a6"/><stop offset="0.80485" stop-color="#00b7c7"/><stop offset="0.95254" stop-color="#0097f0"/><stop offset="1" stop-color="#008cff"/></linearGradient><linearGradient id="Gradiente_sem_nome_35-2" x1="73.93077" y1="74.28328" x2="146.92559" y2="147.2781" xlink:href="#Gradiente_sem_nome_35"/></defs><path class="cls-1" d="M110.753,0A110.89987,110.89987,0,0,0,0,110.797c0,91.026,99.729,179.905,103.976,183.645a10.25462,10.25462,0,0,0,13.555,0c4.245-3.739,103.975-92.618,103.975-183.645A110.89985,110.89985,0,0,0,110.753,0Zm0,272.689C88.704,251.323,20.51,179.66,20.51,110.797a90.243,90.243,0,1,1,180.486,0C200.996,179.659,132.802,251.322,110.753,272.689Z"/><path class="cls-2" d="M110.753,59.183a51.61513,51.61513,0,1,0,51.27287,51.95513q.00113-.17056.00113-.34113A51.50288,51.50288,0,0,0,110.753,59.183Zm0,82.718a31.10587,31.10587,0,1,1,30.76314-31.44487q.00185.17043.00186.34087A30.97073,30.97073,0,0,1,110.753,141.901Z"/></svg>