<svg id="Capa_1" data-name="Capa 1" xmlns="http://www.w3.org/2000/svg" viewBox="0 0 221.50599 297.00101"><defs><style>.cls-1{fill:#fff;}</style></defs><title>location</title><path class="cls-1" d="M148.5,0A110.89988,110.89988,0,0,0,37.747,110.797c0,91.026,99.729,179.905,103.976,183.645a10.25461,10.25461,0,0,0,13.555,0c4.245-3.739,103.975-92.618,103.975-183.645A110.89986,110.89986,0,0,0,148.5,0Zm0,272.689c-22.049-21.366-90.243-93.029-90.243-161.892a90.243,90.243,0,1,1,180.486,0C238.743,179.659,170.549,251.322,148.5,272.689Z" transform="translate(-37.747)"/><path class="cls-1" d="M148.5,59.183a51.61513,51.61513,0,1,0,51.274,51.614A51.50287,51.50287,0,0,0,148.5,59.183Zm0,82.718a31.10587,31.10587,0,1,1,30.765-31.104A30.97073,30.97073,0,0,1,148.5,141.901Z" transform="translate(-37.747)"/></svg>