<svg id="Capa_1" data-name="Capa 1" xmlns="http://www.w3.org/2000/svg" xmlns:xlink="http://www.w3.org/1999/xlink" viewBox="0 0 75.294 51.116"><defs><style>.cls-1{fill:url(#Gradiente_sem_nome_62);}</style><linearGradient id="Gradiente_sem_nome_62" x1="8.74153" y1="-3.34778" x2="66.55278" y2="54.46347" gradientUnits="userSpaceOnUse"><stop offset="0" stop-color="#00ff6a"/><stop offset="0.13444" stop-color="#00fb70"/><stop offset="0.30662" stop-color="#00ee80"/><stop offset="0.49932" stop-color="#00da9a"/><stop offset="0.707" stop-color="#00bebe"/><stop offset="0.92445" stop-color="#009aed"/><stop offset="1" stop-color="#008cff"/></linearGradient></defs><path class="cls-1" d="M66.097,0H9.197A9.20773,9.20773,0,0,0,0,9.197V41.919a9.20773,9.20773,0,0,0,9.197,9.197h56.9a9.20773,9.20773,0,0,0,9.197-9.197V9.198A9.20667,9.20667,0,0,0,66.097,0ZM61.603,6,37.647,21.434,13.691,6Zm4.494,39.117H9.197A3.201,3.201,0,0,1,6,41.92V9.368l29.796,19.16c.04.025.083.042.124.065.043.024.087.047.131.069a3.45546,3.45546,0,0,0,.712.278c.025.007.05.01.075.016a3.5189,3.5189,0,0,0,.807.102h.006a3.46487,3.46487,0,0,0,.807-.102c.025-.006.05-.009.075-.016a3.47715,3.47715,0,0,0,.712-.278c.044-.022.088-.045.131-.069.041-.023.084-.04.124-.065L69.296,9.368V41.919A3.20363,3.20363,0,0,1,66.097,45.117Z"/></svg>