<svg id="Layer_1" data-name="Layer 1" xmlns="http://www.w3.org/2000/svg" viewBox="0 0 114.60001 123.00001"><defs><style>.cls-1{fill:#fff;fill-rule:evenodd;}</style></defs><title>project</title><path class="cls-1" d="M105.4,76.3l3.8,3.8a2.535,2.535,0,0,1,0,3.6l-3.1,3.1a22.28709,22.28709,0,0,1,1.9,5.1h4a2.64744,2.64744,0,0,1,2.6,2.6v5.4a2.64744,2.64744,0,0,1-2.6,2.6h-4.3a21.60622,21.60622,0,0,1-2.2,4.9l2.8,2.8a2.535,2.535,0,0,1,0,3.6l-3.8,3.8a2.535,2.535,0,0,1-3.6,0l-3.1-3.1a22.28692,22.28692,0,0,1-5.1,1.9v4a2.64743,2.64743,0,0,1-2.6,2.6H84.7a2.64744,2.64744,0,0,1-2.6-2.6V116a21.606,21.606,0,0,1-4.9-2.2l-2.8,2.8a2.535,2.535,0,0,1-3.6,0L67,112.8a2.535,2.535,0,0,1,0-3.6l3.1-3.1a22.28711,22.28711,0,0,1-1.9-5.1h-4a2.64743,2.64743,0,0,1-2.6-2.6V93a2.64744,2.64744,0,0,1,2.6-2.6h4.3a21.60622,21.60622,0,0,1,2.2-4.9L68,82.8a2.535,2.535,0,0,1,0-3.6l3.8-3.8a2.535,2.535,0,0,1,3.6,0l3.1,3.1a22.28692,22.28692,0,0,1,5.1-1.9v-4A2.64744,2.64744,0,0,1,86.2,70h5.4a2.64744,2.64744,0,0,1,2.6,2.6v4.3a21.606,21.606,0,0,1,4.9,2.2l2.8-2.8a2.41408,2.41408,0,0,1,3.5,0Zm-64,5.9a2.80745,2.80745,0,0,1-2.5-3,2.74471,2.74471,0,0,1,2.5-3H53.8a2.80745,2.80745,0,0,1,2.5,3,2.74472,2.74472,0,0,1-2.5,3Zm3.7,30.1a3,3,0,1,1,0,6H7.1a7.11908,7.11908,0,0,1-5-2.1,6.94376,6.94376,0,0,1-2.1-5V7.1a6.94376,6.94376,0,0,1,2.1-5A6.94376,6.94376,0,0,1,7.1,0H93.8a7.1191,7.1191,0,0,1,5,2.1,6.94375,6.94375,0,0,1,2.1,5V55.4a3,3,0,1,1-6,0V7.1a1.0253,1.0253,0,0,0-1-1H7.1a.90783.90783,0,0,0-.7.3.77855.77855,0,0,0-.3.7V111.4a1.0253,1.0253,0,0,0,1,1h38v-.1ZM18.8,74.1H29.5a.94477.94477,0,0,1,1,1v9.2a.94478.94478,0,0,1-1,1H18.8a.94478.94478,0,0,1-1-1V75.1a.94477.94477,0,0,1,1-1Zm0-52.9H29.5a.94477.94477,0,0,1,1,1v9.2a.94477.94477,0,0,1-1,1H18.8a.94477.94477,0,0,1-1-1V22.2a.94477.94477,0,0,1,1-1Zm22.6,8.1a2.80745,2.80745,0,0,1-2.5-3,2.74471,2.74471,0,0,1,2.5-3H76.1a2.80745,2.80745,0,0,1,2.5,3,2.74471,2.74471,0,0,1-2.5,3ZM21.9,57.4a1.7274,1.7274,0,0,1-2.3-.3l-.2-.2-3.2-3.3a1.815,1.815,0,0,1,.3-2.6,2.13446,2.13446,0,0,1,2.8-.1L21,52.7l5.6-4.5a1.75916,1.75916,0,0,1,2.5.6,2.01211,2.01211,0,0,1-.2,2.8l-7,5.8Zm17.8-2.6a2.80745,2.80745,0,0,1-2.5-3,2.74471,2.74471,0,0,1,2.5-3H74.4a2.80745,2.80745,0,0,1,2.5,3,2.74471,2.74471,0,0,1-2.5,3ZM88.1,85.9A10.6,10.6,0,1,1,77.5,96.5,10.60533,10.60533,0,0,1,88.1,85.9Z" transform="translate(0)"/></svg>