<svg id="Camada_1" data-name="Camada 1" xmlns="http://www.w3.org/2000/svg" viewBox="0 0 1180.58021 999.73416"><defs><style>.cls-1{fill:#fff;}</style></defs><path class="cls-1" d="M383.5,282.6C240.5,361,118.1,427.8,111.5,431c-13.7,6.6-19.4,10.4-28.3,19.3C59.1,473.9,46.7,509.8,50,546.2c2.7,29.9,11.9,50.6,31.3,70.1l10.8,10.9-6.5,6c-12.2,11.1-23,27.7-29,44.6-9,25.2-9.4,56.6-.9,82.7,5.6,17.4,17.9,36.1,30.8,46.7l6.3,5.2L88.7,816c-19.1,16-32.1,39.6-37.3,67.5-2,10.8-2.2,31.7-.4,43,7,44.5,35.7,76.8,77.7,87.5,4.3,1.1,30.5,6.9,58.3,12.9,45.4,9.9,257.5,56.5,445,97.7,56.7,12.5,71.6,15.5,76,15.1,5.2-.4,21.2-9.3,260.5-144,200.2-112.7,255.6-144.3,257.9-147.1a18.03857,18.03857,0,0,0,1.3-19.8c-4.8-8.3-15.1-11.2-24-6.7-2.3,1.2-115.3,64.7-251.2,141.2-135.8,76.5-247.7,139.2-248.6,139.4-.9.3-58.2-12-127.5-27.2-69.2-15.2-159.6-35.1-200.9-44.1-41.2-9.1-106.7-23.5-145.5-32s-76.7-16.8-84.3-18.4c-19.4-4.1-28.5-8.5-39.2-19.4C94,949.1,88.1,935.9,86,915.8a87.80658,87.80658,0,0,1,8.5-49.3c8.9-18.4,23.1-30.6,39.3-34l6.6-1.4,70.5,15.5c38.8,8.5,116.5,25.6,172.6,37.9,224.4,49.3,285.8,62.8,303,66.6,11.2,2.5,19.5,3.9,22,3.6,3-.3,67-35.9,258.4-143.6,139.9-78.8,255.4-143.9,256.6-144.7,1.2-.7,3.2-3.2,4.4-5.5,2.9-5.1,2.6-14.3-.6-18.7-5.2-7.1-14-9.7-21.5-6.5-2.4,1.1-116.1,64.9-252.8,141.9C785.7,871.7,703.7,917.4,702,917.3c-1.4-.1-52.4-11.2-113.5-24.6-61-13.5-186.6-41-279-61.2s-171.6-37.8-176-39.1c-23.5-6.9-39.8-25.2-46-51.6-2.3-9.6-2.3-29.6-.1-39.7,4.6-20.9,16-38.4,31.3-48.1,6.7-4.3,17.3-7.4,23.1-6.7,4,.4,48.8,10.2,244,53.2,16.1,3.6,30.9,6.5,32.8,6.5,4.3,0,10.5-3.1,13.2-6.5,6.5-8.3,4.5-21-4.1-26.4-2.1-1.3-33-8.5-92.2-21.5-49-10.8-106.5-23.4-128-28.1-21.4-4.8-47.3-10.4-57.3-12.5-24.4-5.2-32.3-8.9-43.7-20.4C94,578.1,88.2,565.1,86,545a96.11384,96.11384,0,0,1,2.7-34.5c2.3-8.9,9.5-23.2,15-29.7,8.2-9.9,21.9-18.8,28.9-18.8,1.6,0,20.8,3.8,42.5,8.5C646.3,571.7,704.8,584.1,708.5,583.7c3-.3,65.7-35.2,258.3-143.5,139.8-78.8,255.2-143.8,256.5-144.7,3.6-2.3,6.7-8.7,6.7-13.8,0-7.6-3.1-13.1-9.2-16.3-1.4-.7-39.4-9.4-84.5-19.3-45-9.9-134-29.5-197.8-43.5s-154-33.8-200.6-44c-47.6-10.5-86.7-18.6-89.5-18.6C643.8,140,629.2,147.9,383.5,282.6Z" transform="translate(-49.47504 -139.99998)"/><path class="cls-1" d="M1204.5,450.7c-1.6.8-115,64.6-251.9,141.6l-248.9,140-9.6-2c-5.3-1.1-32.7-7.1-61-13.3-46.6-10.2-51.7-11.2-55.2-10.1-15.9,4.8-18.4,25.5-3.9,32.9,5.2,2.6,126,29.3,132.8,29.4,2.8,0,6.2-1,10-3,3.1-1.7,118.4-66.5,256.2-144,197.6-111.3,251.1-141.8,253.4-144.6,4.2-5.1,4.8-13.6,1.5-19.6C1223.4,450,1212.3,446.6,1204.5,450.7Z" transform="translate(-49.47504 -139.99998)"/><path class="cls-1" d="M461,687.1c0,74.9.3,93.9,1.3,93.3.6-.5,10.2-6.4,21.1-13.2l19.9-12.4,4.6,5.2c17.8,19.9,40.7,44.9,41.4,44.9.4.1.7-44.4.7-98.7V607.3l-43.2-7.2c-23.8-3.9-43.9-7.1-44.5-7.1C461.3,593,461,612.5,461,687.1Z" transform="translate(-49.47504 -139.99998)"/></svg>