<svg id="Camada_1" data-name="Camada 1" xmlns="http://www.w3.org/2000/svg" xmlns:xlink="http://www.w3.org/1999/xlink" viewBox="0 0 23.88578 23.99158"><defs><style>.cls-1{fill:url(#Gradiente_sem_nome_159);}</style><linearGradient id="Gradiente_sem_nome_159" x1="1.76412" y1="5.30837" x2="18.58584" y2="22.13009" gradientUnits="userSpaceOnUse"><stop offset="0" stop-color="#00ff6a"/><stop offset="0.14102" stop-color="#00fb6f"/><stop offset="0.30958" stop-color="#00f07e"/><stop offset="0.49229" stop-color="#00dd96"/><stop offset="0.68502" stop-color="#00c3b7"/><stop offset="0.88353" stop-color="#00a2e2"/><stop offset="1" stop-color="#008cff"/></linearGradient></defs><path class="cls-1" d="M0,24l1.687-6.163a11.8918,11.8918,0,1,1,4.618,4.509Zm6.597-3.807a9.8614,9.8614,0,1,0-2.743-2.667l-.999,3.648Zm11.387-5.464c-.074-.124-.272-.198-.57-.347-.297-.149-1.758-.868-2.031-.967-.272-.099-.47-.149-.669.149-.198.297-.768.967-.941,1.165s-.347.223-.644.074a8.11049,8.11049,0,0,1-2.39-1.475,8.94556,8.94556,0,0,1-1.653-2.059c-.173-.297-.018-.458.13-.606.134-.133.297-.347.446-.521a1.9492,1.9492,0,0,0,.3-.495.54633.54633,0,0,0-.025-.521c-.075-.148-.669-1.611-.916-2.206-.242-.579-.487-.501-.669-.51l-.57-.01a1.08871,1.08871,0,0,0-.792.372A3.33443,3.33443,0,0,0,5.95,9.251a5.78287,5.78287,0,0,0,1.213,3.074,13.24908,13.24908,0,0,0,5.076,4.487,17.19435,17.19435,0,0,0,1.694.626,4.08448,4.08448,0,0,0,1.872.118,3.06084,3.06084,0,0,0,2.006-1.413A2.47559,2.47559,0,0,0,17.984,14.729Z" transform="translate(0 -0.00842)"/></svg>