<svg id="Camada_1" data-name="Camada 1" xmlns="http://www.w3.org/2000/svg" viewBox="0 0 23.886 24"><defs><style>.cls-1{fill:#fff;}</style></defs><title>whatsapp 2</title><path class="cls-1" d="M.057,24l1.687-6.163a11.89179,11.89179,0,1,1,4.618,4.509Zm6.597-3.807a9.8614,9.8614,0,1,0-2.743-2.667l-.999,3.648Zm11.387-5.464c-.074-.124-.272-.198-.57-.347-.297-.149-1.758-.868-2.031-.967-.272-.099-.47-.149-.669.149-.198.297-.768.967-.941,1.165s-.347.223-.644.074a8.11051,8.11051,0,0,1-2.39-1.475,8.94541,8.94541,0,0,1-1.653-2.059c-.173-.297-.018-.458.13-.606.134-.133.297-.347.446-.521a1.94926,1.94926,0,0,0,.3-.495.54633.54633,0,0,0-.025-.521c-.075-.148-.669-1.611-.916-2.206-.242-.579-.487-.501-.669-.51l-.57-.01a1.08871,1.08871,0,0,0-.792.372,3.33442,3.33442,0,0,0-1.04,2.479A5.78287,5.78287,0,0,0,7.22,12.325a13.249,13.249,0,0,0,5.076,4.487,17.19446,17.19446,0,0,0,1.694.626,4.08451,4.08451,0,0,0,1.872.118,3.06084,3.06084,0,0,0,2.006-1.413A2.47566,2.47566,0,0,0,18.041,14.729Z" transform="translate(-0.057)"/></svg>