<svg xmlns="http://www.w3.org/2000/svg" viewBox="0 0 2000 1947.26281"><defs><style>.cls-1{isolation:isolate;}.cls-2{fill:#fee4cb;}.cls-3,.cls-33{fill:#fff;}.cls-19,.cls-3{opacity:0.2;}.cls-4{fill:#07085b;}.cls-23,.cls-5{fill:#06bfad;}.cls-6{fill:#02ccc0;}.cls-7{fill:#feb546;}.cls-8{fill:#55769f;}.cls-9{fill:#f4a640;}.cls-10{fill:#1c2072;}.cls-11{fill:#4d5296;}.cls-12{fill:#eaf5f9;}.cls-13,.cls-21,.cls-26,.cls-27{fill:#daeef7;}.cls-14,.cls-15{fill:#cae2ea;}.cls-15,.cls-26,.cls-33{opacity:0.5;}.cls-15,.cls-21,.cls-23,.cls-24,.cls-32{mix-blend-mode:multiply;}.cls-16{fill:#f3fcff;}.cls-17,.cls-24{fill:#b6d5e0;}.cls-18{fill:#d37300;}.cls-19{mix-blend-mode:screen;}.cls-20{fill:#e03268;}.cls-22{fill:#ff5b7e;}.cls-23,.cls-27,.cls-32{opacity:0.3;}.cls-25{fill:#ce1b5c;}.cls-28{fill:#333;}.cls-29{fill:#ffc0bb;}.cls-30{fill:#fc8d84;opacity:0.6;}.cls-31,.cls-32{fill:#f99893;}</style></defs><title>essays_il</title><g class="cls-1"><g id="Layer_1" data-name="Layer 1"><path class="cls-2" d="M187.54924,1040.22809c8.118-155.7319-51.90167-266.18757,31.767-384.28331C271.13035,582.81034,470.819,490.07759,522.633,416.94326c17.39585-24.55434,35.08081-49.42338,57.22052-67.42875,60.618-49.30016,139.96145-37.836,212.74358-33.48558,53.72747,3.21115,107.95175,1.43222,160.67671-11.56352,133.768-32.97209,248.257-134.86094,374.16827-199.04287a734.1954,734.1954,0,0,1,179.98423-64.21761c56.9264-12.15577,116.81544-16.87733,171.39741,6.27931s102.734,79.459,109.75458,149.39167c3.92618,39.10518-4.91738,78.27233-7.06074,117.58293-2.14451,39.31,4.66509,83.7111,31.02511,106.50319,21.32193,18.43576,49.83983,17.99372,73.90354,30.44133,61.10361,31.60959,73.4257,130.82822,65.44394,211.16126-7.9829,80.33247-26.23279,166.99843,5.15973,238.29644,8.70181,19.76247,20.87313,37.131,28.60043,57.48619,9.25555,24.3807,11.64674,51.71638,12.97071,78.53182,7.39339,149.71266-15.04491,301.486-64.84449,438.63208-8.29212,22.83793-17.65375,45.82219-32.60812,62.89317-18.54116,21.16452-43.76583,31.12446-64.61232,48.815-23.41842,19.873-40.67687,48.94121-63.5986,69.65477-42.711,38.59718-99.15278,43.70112-152.23222,47.385-147.92984,10.26584-298.31786,20.29048-442.52465-21.20476-163.23366-46.9708-317.65111-159.3532-485.14531-148.74808-88.00787,5.57159-178.5793,45.00943-261.86117,9.86837-41.16418-17.369-76.79872-53.3507-99.29509-98.72068-23.84595-48.08832-22.91384-107.858-49.14434-154.139-17.46891-30.823-46.09895-47.50327-64.15233-77.49032C190.11179,1166.50324,184.59049,1096.99365,187.54924,1040.22809Z" transform="translate(0 -31.09596)"/><path class="cls-3" d="M1981.253,1299.47425a1147.85742,1147.85742,0,0,0,17.25743-148.36514c-83.96282-14.81605-169.79441-22.08222-249.91815-50.86247-2.82763-10.50464,7.84448-19.4912,17.58116-24.34057a169.52037,169.52037,0,0,1,120.2694-11.30837c14.01438,3.94733,27.46737,9.70765,41.48175,13.655,23.42184,6.59972,47.72446,7.9605,72.02252,6.10292q-.17748-23.75273-1.32614-47.47653c-1.026-20.77939-2.7083-41.86469-7.71279-61.65174-38.53362.73012-77.30833,1.21011-115.247-5.47786-56.69526-9.99675-112.54312-35.9409-169.41145-26.97788-34.80727,5.48621-66.21087,23.67471-99.96543,33.78645-68.5273,20.52928-141.98764,6.83418-213.50444,8.48634-26.8534.62072-54.70817,3.77986-77.60189,17.83s-39.37862,41.57342-33.13053,67.69784c6.35418,26.57322,32.57908,42.952,57.34159,54.49726a537.09966,537.09966,0,0,0,142.57361,43.60728c65.04876,10.32048,131.41258,8.5835,196.88339,15.77045,15.65991,1.71914,32.04764,4.26328,44.54052,13.86154,10.22229,7.85453,16.63671,19.53133,24.69449,29.594,28.71212,35.85882,76.53581,49.54615,121.6759,58.07272C1906.57366,1292.93031,1943.82355,1297.79534,1981.253,1299.47425Z" transform="translate(0 -31.09596)"/><path class="cls-4" d="M93.179,845.13986c29.12067-18.51,42.00484,35.08641,44.91284,49.64446a213.8503,213.8503,0,0,1,34.25753,8.14534c-9.82322-15.15762-26.16077-19.94834-29.55379-31.302-3.80456-12.73122.24439-28.32917,20.56334-15.73536,16.09978,9.97892,14.375,37.42011,12.96454,48.39252a194.2636,194.2636,0,0,1,41.15869,20.0087c-8.92176-19.0966-27.26252-26.83785-29.78151-40.1356-2.75631-14.54914,3.49967-31.08205,24.5364-14.23043,17.38853,13.92956,11.15838,45.85168,8.47352,56.511a116.0611,116.0611,0,0,1,14.08308,10.98361,378.66758,378.66758,0,0,1,26.71165,27.61083c-7.49113-16.99508-21.927-26.8662-22.72237-39.18772-.95554-14.78759,7.29188-30.09084,26.13951-10.11118,14.91082,15.80669,6.28719,44.41272,2.03225,55.67765a374.4382,374.4382,0,0,1,40.52792,59.303c-1.55384-17.34327-14.99621-41.16361-11.44623-57.37508,2.32866-10.63644,8.83968-13.27649,13.9307-13.60811a13.92484,13.92484,0,0,1,11.5953,5.38858c17.18426,20.77608-4.95031,58.29164-12.09039,69.23833a377.76129,377.76129,0,0,1,27.78161,66.10147c-.734-8.97423-1.89838-22.51866-2.78305-29.53254-1.39427-11.05734,1.81014-26.62568,9.15952-33.0033q.45885-.39849.91816-.74349c5.85806-4.40949,13.79067-2.74624,18.75115,3.23288,19.40629,23.38606-15.96809,59.85109-23.82205,67.44327.03909.13512.08207.27469.1206.4097,14.1958,49.36874,13.49642,84.3134,13.46019,85.7758l-4.74558-.31035c.00835-.3394.65079-33.60836-12.101-79.92838-44.61882-5.01684-57.92046-33.90534-52.26793-44.79064,5.84183-11.24824,22.97636-15.546,31.5945,5.32377,4.99786,12.10444,12.68264,23.57914,18.25984,31.08879a371.50912,371.50912,0,0,0-27.9636-67.59291c-57.499,16.09864-64.006-25.64214-52.50834-35.553,11.63658-10.03241,21.47156-4.10691,31.47277,11.6177a78.81926,78.81926,0,0,0,19.29859,20.718,369.27986,369.27986,0,0,0-39.58736-58.36525c-6.72764,9.15289-25.44357,31.16252-44.43741,22.39143-23.73826-10.96235-15.41482-26.21039-3.4935-31.64241,10.96177-4.9934,26.81932,8.62031,45.56476,6.42a372.8695,372.8695,0,0,0-30.31958-31.86909c-.17809-.17307-9.77076-9.21988-27.71074-19.05533-5.709,10.17541-21.70716,34.51988-41.35463,28.55642-24.67482-7.48839-18.1382-23.87109-6.95752-30.99951,9.9772-6.35978,26.45262,4.06232,44.12751.20988a203.26611,203.26611,0,0,0-61.60647-19.99407c-5.99421,10.50864-21.75574,33.79194-41.01192,27.94793-24.67483-7.48884-18.13821-23.87223-6.95694-31,10.11677-6.44963,26.91648,4.36982,44.87373.04858l.04755-.56882c-6.39715-3.00688-19.988-9.33648-26.6179-11.9883-8.848-3.53878-18.98824-13.67784-20.43669-23.85555C86.77116,850.6735,93.179,845.13986,93.179,845.13986Z" transform="translate(0 -31.09596)"/><path class="cls-5" d="M133.15932,1112.0485l-71.97177-1.15867c-25.07674-45.235-43.49067-84.57347-43.49067-84.57347,81.2456-18.89952,149.86115-11.34529,207.05927,10.50807l31.64972,76.4431,6.62212-58.9223c141.79891,76.14623,200.48676,237.83713,200.48676,237.83713S213.134,1266.02559,160.01545,1241.454c-20.50984-9.48783-46.3981-43.72456-70.45517-82.18114C108.70877,1140.96935,133.15932,1112.0485,133.15932,1112.0485Z" transform="translate(0 -31.09596)"/><path class="cls-6" d="M17.69688,1026.31636s321.66093,134.59631,445.81787,265.866c0,0-250.38076-26.15677-303.4993-50.72837-20.50984-9.48783-46.3981-43.72456-70.45517-82.18114,19.14849-18.3035,43.599-47.22435,43.599-47.22435l-71.97177-1.15867C36.11081,1065.65486,17.69688,1026.31636,17.69688,1026.31636Z" transform="translate(0 -31.09596)"/><path class="cls-7" d="M.70626,1110.7179c13.73934-22.75094,41.00072,9.79911,47.9979,18.8426a164.62413,164.62413,0,0,1,26.42027-6.12647c-11.9715-7.0876-24.88253-4.79015-31.11554-11.458-6.98827-7.47616-9.5435-19.623,8.78835-17.90272,14.5257,1.36306,22.7442,20.881,25.53331,28.93205a149.69293,149.69293,0,0,1,35.24771-.31036c-12.70058-10.11174-28.005-9.164-34.30109-17.47176-6.88939-9.09025-8.24239-22.637,12.0442-18.22748,16.769,3.646,23.41614,27.8,25.2185,36.07213a89.45673,89.45673,0,0,1,13.47974,2.74728,291.77457,291.77457,0,0,1,27.88929,9.8862c-10.99309-9.15392-24.3344-11.01264-29.10718-19.2388-5.72912-9.87066-5.28695-23.25438,14.56251-15.93575,15.70346,5.79051,19.56265,28.47664,20.4903,37.70646a288.40492,288.40492,0,0,1,48.28425,27.00749c-7.01787-11.43023-24.45557-23.24992-27.56567-35.64906-2.04-8.13471,1.54562-12.187,4.94367-14.1607a10.72417,10.72417,0,0,1,9.84449-.26006c18.97544,8.43833,16.5703,41.90264,15.39813,51.90054a290.84679,290.84679,0,0,1,41.824,36.06767c-3.5829-5.93888-9.029-14.8819-12.04421-19.4153-4.75277-7.149-7.87956-18.98435-4.99717-25.90346q.17987-.43194.37837-.82717c2.52848-5.05033,8.57013-6.62315,14.04125-4.19961,21.40239,9.47651,9.50554,46.75544,6.69185,54.68359.07316.08036.15078.16186.22326.24223,26.71724,29.18434,38.21493,53.52491,38.691,54.5463l-3.37908,1.41324c-.11111-.23663-11.07357-23.40275-35.749-50.97952-32.49483,11.83638-51.57292-3.52768-51.406-12.97413.1725-9.76,10.517-18.59923,23.61607-7.16008,7.59722,6.6355,16.83149,11.91571,23.25265,15.18322a286.06786,286.06786,0,0,0-42.46037-37.03327c-34.13852,30.81638-52.93712,4.25768-48.40531-6.5205,4.587-10.90885,13.40155-10.19326,25.69072-2.77631a60.69468,60.69468,0,0,0,20.41326,7.67254,284.50738,284.50738,0,0,0-47.3141-26.68375c-1.50206,8.62042-6.86492,30.21692-22.97248,30.67909-20.13078.57716-19.61843-12.79318-13.25751-20.62645,5.84789-7.2026,21.45258-3.24967,33.62722-11.19348A287.40671,287.40671,0,0,0,129.38609,1129.68c-.182-.05807-9.90027-3.00859-25.64557-3.64154-.44879,8.97536-3.13742,31.25065-18.73263,33.874-19.58608,3.29438-20.69457-10.24675-15.42659-18.99657,4.70087-7.80652,19.63741-6.26719,30.50716-14.98352a156.53814,156.53814,0,0,0-49.34587,7.331c-.53133,9.30242-3.41989,30.76506-18.70531,33.33595-19.58609,3.29437-20.69458-10.24572-15.426-18.99555,4.76672-7.91694,20.06335-6.21346,30.96705-15.35172l-.16232-.40752c-5.44334.11945-16.98674.412-22.469.8562-7.31589.59282-17.786-2.92366-22.27426-9.44634A13.79037,13.79037,0,0,1,.70626,1110.7179Z" transform="translate(0 -31.09596)"/><path class="cls-8" d="M28.38911,1242.45868c43.22226-26.43924,86.85023-40.629,129.09066-46.34014,12.413,15.373,27.65267,33.44866,27.65267,33.44866l1.53054-36.09774c162.09155-7.7105,296.63607,100.63187,296.63607,100.63187-93.77037,59.36777-173.82826,75.84593-239.44356,70.69181-3.91166-12.62126-9.45308-31.44934-9.45308-31.44934l-11.53116,29.02248a282.95112,282.95112,0,0,1-83.22274-26.54749c6.10862-15.05383,12.53928-32.2621,12.53928-32.2621l-34.8994,19.91657C58.66856,1287.7963,28.38911,1242.45868,28.38911,1242.45868Z" transform="translate(0 -31.09596)"/><path class="cls-4" d="M243.85549,1364.79314c-3.91166-12.62126-9.45308-31.44934-9.45308-31.44934l-11.53116,29.02248a282.95112,282.95112,0,0,1-83.22274-26.54749c6.10862-15.05383,12.53928-32.2621,12.53928-32.2621l-34.8994,19.91657c-58.61983-35.677-88.89928-81.01458-88.89928-81.01458,188.83178-22.20167,454.90994,51.64265,454.90994,51.64265C389.52868,1353.4691,309.47079,1369.94726,243.85549,1364.79314Z" transform="translate(0 -31.09596)"/><path class="cls-5" d="M1826.75353,1493.2073l84.67955-1.3642c29.50465-53.22119,51.1694-99.50555,51.1694-99.50555-95.59057-22.23734-143.04366-24.32034-210.34187,1.3921L1708.42,1462.3005l-8.08453-56.34581c-166.83611,89.59133-262.267,299.19075-262.267,299.19075s294.58932-30.77512,357.0872-59.68591c24.1307-11.16217,54.591-51.444,82.89456-96.69117C1855.52155,1527.23313,1826.75353,1493.2073,1826.75353,1493.2073Z" transform="translate(0 -31.09596)"/><path class="cls-6" d="M1962.60248,1392.33755s-378.455,158.36086-524.534,312.80789c0,0,294.58932-30.77512,357.0872-59.68591,24.1307-11.16217,54.591-51.444,82.89456-96.69117-22.52872-21.53523-51.29674-55.56106-51.29674-55.56106l84.67955-1.3642C1940.93773,1438.62191,1962.60248,1392.33755,1962.60248,1392.33755Z" transform="translate(0 -31.09596)"/><path class="cls-7" d="M1950.02249,1646.64289c-50.85343-31.10891-102.18469-47.80369-151.88276-54.52172-14.60618,18.08573-32.53553,39.354-32.53553,39.354l-1.80065-42.472c-190.71224-9.07242-349.01285,118.40061-349.01285,118.40061,110.32729,69.849,204.5213,89.23754,281.72138,83.17246,4.60257-14.84943,11.122-37.00092,11.122-37.00092l13.56787,34.14642a332.959,332.959,0,0,0,97.91592-31.235c-7.18706-17.71284-14.75238-37.95863-14.75238-37.95863l41.061,23.43294C1914.397,1699.98571,1950.02249,1646.64289,1950.02249,1646.64289Z" transform="translate(0 -31.09596)"/><path class="cls-9" d="M1696.51208,1790.57625c4.60257-14.84943,11.122-37.00092,11.122-37.00092l13.56787,34.14642a332.959,332.959,0,0,0,97.91592-31.235c-7.18706-17.71284-14.75238-37.95863-14.75238-37.95863l41.061,23.43294c68.97049-41.97535,104.596-95.31817,104.596-95.31817-222.17276-26.12225-535.23179,60.7609-535.23179,60.7609C1525.118,1777.25278,1619.312,1796.64133,1696.51208,1790.57625Z" transform="translate(0 -31.09596)"/><polygon class="cls-10" points="1664.488 747.468 1010.937 602.72 1010.937 1626.952 1664.488 1764.906 1664.488 747.468"/><polygon class="cls-4" points="1681.59 1764.651 1664.488 1764.906 1664.488 740.599 1681.59 740.346 1681.59 1764.651"/><polygon class="cls-11" points="1010.937 602.72 1018.435 597.052 1681.59 740.346 1664.488 747.468 1010.937 602.72"/><polygon class="cls-10" points="357.387 747.468 1010.937 602.72 1010.937 1626.952 357.387 1764.906 357.387 747.468"/><path class="cls-12" d="M384.80037,788.24923,965.65453,644.00335s30.5043,12.81878,45.28243,11.04L734.87757,885.77272s-191.277,24.78536-196.14641,16.5368C533.86112,894.05981,384.80037,788.24923,384.80037,788.24923Z" transform="translate(0 -31.09596)"/><polygon class="cls-13" points="384.8 1760.086 458.818 1793.204 458.818 790.27 384.8 757.153 384.8 1760.086"/><polygon class="cls-14" points="1010.937 1626.952 458.818 1793.204 458.818 790.198 1010.937 623.947 1010.937 1626.952"/><polygon class="cls-15" points="955.616 787.861 514.139 920.795 514.139 848.558 955.616 715.622 955.616 787.861"/><polygon class="cls-15" points="955.616 819.35 677.913 902.97 677.913 890.004 955.616 806.384 955.616 819.35"/><polygon class="cls-15" points="955.616 851.764 677.913 935.385 677.913 922.419 955.616 838.799 955.616 851.764"/><polygon class="cls-15" points="955.616 884.179 677.913 967.8 677.913 954.834 955.616 871.214 955.616 884.179"/><polygon class="cls-15" points="955.616 916.594 677.913 1000.215 677.913 987.249 955.616 903.628 955.616 916.594"/><polygon class="cls-15" points="955.616 949.009 677.913 1032.629 677.913 1019.664 955.616 936.042 955.616 949.009"/><polygon class="cls-15" points="955.616 981.424 677.913 1065.044 677.913 1052.078 955.616 968.457 955.616 981.424"/><polygon class="cls-15" points="955.616 1013.839 677.913 1097.459 677.913 1084.492 955.616 1000.872 955.616 1013.839"/><polygon class="cls-15" points="955.616 1046.253 677.913 1129.874 677.913 1116.908 955.616 1033.287 955.616 1046.253"/><polygon class="cls-15" points="955.616 1078.667 677.913 1162.288 677.913 1149.322 955.616 1065.701 955.616 1078.667"/><polygon class="cls-15" points="955.616 1111.082 677.913 1194.702 677.913 1181.737 955.616 1098.116 955.616 1111.082"/><polygon class="cls-15" points="955.616 1143.497 514.139 1276.431 514.139 1263.466 955.616 1130.531 955.616 1143.497"/><polygon class="cls-15" points="734.878 1242.379 514.139 1308.847 514.139 1295.881 734.878 1229.414 734.878 1242.379"/><polygon class="cls-15" points="734.878 1274.794 514.139 1341.261 514.139 1328.295 734.878 1261.828 734.878 1274.794"/><polygon class="cls-15" points="734.878 1307.209 514.139 1373.677 514.139 1360.71 734.878 1294.243 734.878 1307.209"/><polygon class="cls-15" points="734.878 1339.624 514.139 1406.091 514.139 1393.125 734.878 1326.658 734.878 1339.624"/><polygon class="cls-15" points="734.878 1372.039 514.139 1438.505 514.139 1425.54 734.878 1359.073 734.878 1372.039"/><polygon class="cls-15" points="734.878 1404.453 514.139 1470.92 514.139 1457.954 734.878 1391.488 734.878 1404.453"/><polygon class="cls-15" points="734.878 1436.868 514.139 1503.335 514.139 1490.369 734.878 1423.901 734.878 1436.868"/><polygon class="cls-15" points="734.878 1469.283 514.139 1535.75 514.139 1522.784 734.878 1456.316 734.878 1469.283"/><polygon class="cls-15" points="734.878 1501.698 514.139 1568.165 514.139 1555.199 734.878 1488.731 734.878 1501.698"/><polygon class="cls-15" points="955.616 1467.645 514.139 1600.579 514.139 1587.614 955.616 1454.679 955.616 1467.645"/><polygon class="cls-15" points="955.616 1500.06 514.139 1632.994 514.139 1620.028 955.616 1487.094 955.616 1500.06"/><polygon class="cls-15" points="955.616 1532.474 514.139 1665.409 514.139 1652.443 955.616 1519.509 955.616 1532.474"/><polygon class="cls-15" points="514.139 1244.018 659.655 1200.2 659.655 895.502 514.139 939.319 514.139 1244.018"/><polygon class="cls-15" points="750.458 1497.006 955.616 1435.23 955.616 1162.946 750.458 1224.722 750.458 1497.006"/><path class="cls-16" d="M1637.074,788.24923,1056.21983,644.00335s-30.50374,12.81878-45.28287,11.04l276.0604,230.72941s191.277,24.78536,196.14654,16.5368C1488.01327,894.05981,1637.074,788.24923,1637.074,788.24923Z" transform="translate(0 -31.09596)"/><polygon class="cls-17" points="1637.074 1760.086 1563.057 1793.204 1563.057 790.27 1637.074 757.153 1637.074 1760.086"/><polygon class="cls-13" points="1010.937 1626.952 1563.057 1793.204 1563.057 790.198 1010.937 623.947 1010.937 1626.952"/><polygon class="cls-4" points="340.284 1764.651 357.387 1764.906 357.387 740.599 340.284 740.346 340.284 1764.651"/><polygon class="cls-11" points="1010.937 602.72 1003.44 597.052 340.284 740.346 357.387 747.468 1010.937 602.72"/><path class="cls-4" d="M1064.57,638.19833c-20.94458-7.45376-37.61146-9.77453-48.49128-10.34106-6.59858-.60849-26.86622-1.1421-58.11528,9.97834A37.28067,37.28067,0,0,0,963.663,642.441h-.00057l.00229.001a69.3064,69.3064,0,0,0,28.69645,10.81785C1034.43128,662.06782,1064.57,638.19833,1064.57,638.19833Z" transform="translate(0 -31.09596)"/><polygon class="cls-4" points="1038.351 1580.714 1536.173 1730.615 1536.173 826.249 1038.351 676.348 1038.351 1580.714"/><path class="cls-7" d="M1038.35072,1165.69391v446.116l265.1304,79.83464c70.28885-78.43363,99.83031-190.22332,68.47026-298.87387C1329.08759,1244.26379,1186.81645,1151.42278,1038.35072,1165.69391Z" transform="translate(0 -31.09596)"/><path class="cls-9" d="M1106.82,1166.61378a315.081,315.081,0,0,1,58.7091,112.20613c37.0399,128.33026-10.88095,261.04338-110.55946,337.99449l248.51153,74.83015c70.28885-78.43363,99.83031-190.22332,68.47026-298.87273C1335.75316,1267.35962,1228.66446,1181.64862,1106.82,1166.61378Z" transform="translate(0 -31.09596)"/><path class="cls-18" d="M1326.46869,1297.96612c82.72583-17.06984,154.57426-28.20983,209.70435-32.59143V1237.597c-65.08226,9.66193-140.60114,24.04473-223.17746,42.66739Q1320.02016,1288.84621,1326.46869,1297.96612Z" transform="translate(0 -31.09596)"/><path class="cls-18" d="M1536.173,1400.45889v-27.7855c-103.22631,50.13452-265.75215,110.04928-451.768,163.73938q-23.21019,6.69963-46.05436,13.02534V1568.35q25.35356-7.04976,51.09463-14.47448C1261.363,1504.25447,1416.70075,1450.24178,1536.173,1400.45889Z" transform="translate(0 -31.09596)"/><g class="cls-19"><path class="cls-13" d="M1193.80129,754.25245,1038.35072,707.444v432.57991c17.80555-9.33922,33.12721-22.38583,42.807-39.92343,11.18011-20.25253,14.231-45.32539,30.31512-61.952,19.92205-20.59307,52.16517-20.97933,79.1179-30.70253,8.46405-3.05317,16.93484-7.446,21.92264-14.93436,3.60347-5.40973,5.05581-11.947,6.07057-18.36706a171.18484,171.18484,0,0,0-2.44252-65.69509c-9.64741-41.01467-34.56949-79.74868-30.4547-121.6815C1186.78628,775.56877,1189.92987,764.828,1193.80129,754.25245Z" transform="translate(0 -31.09596)"/></g><g class="cls-19"><path class="cls-13" d="M1536.173,1009.7711c-25.85876-.81264-51.71523-1.31391-77.52153.892-13.9643,1.19446-28.70651,3.58679-39.60759,13.99438-14.89412,14.22094-18.46639,39.05043-28.606,58.26591-33.855,64.15576-122.425,44.49034-168.976,96.29051-12.52866,13.94076-20.98482,32.09566-30.31741,49.19453a412.06751,412.06751,0,0,1-59.792,83.398c-23.56691,25.31292-51.94854,50.763-56.30557,88.09213-3.69172,31.63246,11.44235,61.7321,27.06442,87.75615,30.40668,50.65476,65.13461,97.81864,91.83289,151.3279,3.76762,7.55206,7.38573,15.24575,10.96463,22.98083l331.26422,99.74777Z" transform="translate(0 -31.09596)"/></g><path class="cls-13" d="M1385.65219,958.07039c5.87521,0,5.88527-9.13163,0-9.13163-5.87532,0-5.88526,9.13163,0,9.13163Z" transform="translate(0 -31.09596)"/><path class="cls-13" d="M1116.18706,1123.89837c4.11262,0,4.11925-6.391,0-6.391-4.11251,0-4.11925,6.391,0,6.391Z" transform="translate(0 -31.09596)"/><path class="cls-13" d="M1075.60507,1012.8053c5.288,0,5.2969-8.21839,0-8.21839-5.2881,0-5.297,8.21839,0,8.21839Z" transform="translate(0 -31.09596)"/><path class="cls-13" d="M1448.96055,1179.03967c8.22513,0,8.23862-12.78312,0-12.78312-8.22627,0-8.23965,12.78312,0,12.78312Z" transform="translate(0 -31.09596)"/><path class="cls-13" d="M1145.406,857.42617c5.87521,0,5.88527-9.13049,0-9.13049-5.87532,0-5.88538,9.13049,0,9.13049Z" transform="translate(0 -31.09596)"/><path class="cls-13" d="M1333.707,878.52941c5.87521,0,5.88527-9.13106,0-9.13106-5.87532,0-5.88527,9.13106,0,9.13106Z" transform="translate(0 -31.09596)"/><path class="cls-13" d="M1455.45316,1084.68607c5.87533,0,5.88539-9.13048,0-9.13048-5.87521,0-5.88526,9.13048,0,9.13048Z" transform="translate(0 -31.09596)"/><path class="cls-13" d="M1291.50173,1087.93232c5.87521,0,5.88527-9.13049,0-9.13049-5.87532,0-5.88527,9.13049,0,9.13049Z" transform="translate(0 -31.09596)"/><path class="cls-13" d="M1512.26788,878.52941c5.87521,0,5.88527-9.13106,0-9.13106-5.87532,0-5.88424,9.13106,0,9.13106Z" transform="translate(0 -31.09596)"/><path class="cls-13" d="M1153.52292,830.08443c4.11251,0,4.11925-6.39156,0-6.39156-4.11263,0-4.1204,6.39156,0,6.39156Z" transform="translate(0 -31.09596)"/><path class="cls-13" d="M1333.707,1238.44208c5.2881,0,5.297-8.2185,0-8.2185-5.2881,0-5.29587,8.2185,0,8.2185Z" transform="translate(0 -31.09596)"/><path class="cls-13" d="M1442.46691,1553.35869c5.288,0,5.297-8.21736,0-8.21736-5.287,0-5.29587,8.21736,0,8.21736Z" transform="translate(0 -31.09596)"/><path class="cls-13" d="M1470.06265,1583.28755c4.11251,0,4.11926-6.391,0-6.391-4.11262,0-4.11925,6.391,0,6.391Z" transform="translate(0 -31.09596)"/><path class="cls-13" d="M1512.26788,1506.08084c2.93818,0,2.94264-4.56576,0-4.56576-2.937,0-2.9416,4.56576,0,4.56576Z" transform="translate(0 -31.09596)"/><path class="cls-13" d="M1494.41214,1172.59736c4.11251,0,4.11926-6.39213,0-6.39213-4.11262,0-4.11925,6.39213,0,6.39213Z" transform="translate(0 -31.09596)"/><path class="cls-13" d="M1088.59132,826.58418c5.87532,0,5.88527-9.13106,0-9.13106-5.87521,0-5.88527,9.13106,0,9.13106Z" transform="translate(0 -31.09596)"/><path class="cls-13" d="M1057.74922,1110.91212c4.11262,0,4.11937-6.391,0-6.391-4.11251,0-4.11925,6.391,0,6.391Z" transform="translate(0 -31.09596)"/><path class="cls-13" d="M1307.73435,1071.95314c4.11251,0,4.12039-6.391,0-6.391-4.11263,0-4.11926,6.391,0,6.391Z" transform="translate(0 -31.09596)"/><path class="cls-13" d="M1254.166,1039.48791c4.11251,0,4.11925-6.39213,0-6.39213-4.11262,0-4.11937,6.39213,0,6.39213Z" transform="translate(0 -31.09596)"/><path class="cls-13" d="M1437.59743,963.1933c4.11262,0,4.11925-6.3911,0-6.3911-4.11263,0-4.11926,6.3911,0,6.3911Z" transform="translate(0 -31.09596)"/><path class="cls-13" d="M1435.9743,1365.76776c4.11251,0,4.11926-6.391,0-6.391-4.11262,0-4.11925,6.391,0,6.391Z" transform="translate(0 -31.09596)"/><path class="cls-13" d="M1461.94692,1385.24777c4.11251,0,4.11925-6.39213,0-6.39213-4.11263,0-4.1204,6.39213,0,6.39213Z" transform="translate(0 -31.09596)"/><path class="cls-13" d="M1397.01532,1597.897c4.11262,0,4.11925-6.391,0-6.391-4.11251,0-4.11925,6.391,0,6.391Z" transform="translate(0 -31.09596)"/><path class="cls-13" d="M1305.706,938.89514s-1.85312,19.37061-16.2661,16.41791c14.413,5.71,16.2661,26.1937,16.2661,26.1937s1.852-19.37061,16.265-16.41906C1307.558,959.37869,1305.706,938.89514,1305.706,938.89514Z" transform="translate(0 -31.09596)"/><path class="cls-13" d="M1448.96055,1647.32717s-1.85312,19.3706-16.265,16.419c14.41184,5.70889,16.265,26.19256,16.265,26.19256s1.852-19.37061,16.265-16.41906C1450.81253,1667.81084,1448.96055,1647.32717,1448.96055,1647.32717Z" transform="translate(0 -31.09596)"/><path class="cls-13" d="M1287.26188,803.09764s-1.47463,15.42716-12.9539,13.0761c11.47927,4.54689,12.9539,20.86044,12.9539,20.86044s1.47577-15.42717,12.9539-13.07621C1288.73765,819.41118,1287.26188,803.09764,1287.26188,803.09764Z" transform="translate(0 -31.09596)"/><path class="cls-13" d="M1129.50722,938.89514s-1.27047,13.28209-11.15222,11.25819c9.88175,3.915,11.15222,17.96067,11.15222,17.96067s1.27035-13.28209,11.15439-11.25818C1130.77757,952.94084,1129.50722,938.89514,1129.50722,938.89514Z" transform="translate(0 -31.09596)"/><path class="cls-13" d="M1483.25878,1297.96612s-1.27035,13.28324-11.15325,11.25933c9.8829,3.915,11.15325,17.96068,11.15325,17.96068s1.27047-13.28324,11.15336-11.25933C1484.52925,1312.013,1483.25878,1297.96612,1483.25878,1297.96612Z" transform="translate(0 -31.09596)"/><path class="cls-13" d="M1431.31355,856.91942s-.91644,9.59266-8.05435,8.13083c7.13791,2.82763,8.05435,12.97173,8.05435,12.97173s.9177-9.59322,8.05549-8.1314C1432.23125,867.06352,1431.31355,856.91942,1431.31355,856.91942Z" transform="translate(0 -31.09596)"/><path class="cls-13" d="M1494.41214,1033.0456s-.9177,9.59265-8.05549,8.1314c7.13779,2.82649,8.05549,12.97173,8.05549,12.97173s.91759-9.59368,8.05538-8.13128C1495.32973,1043.1897,1494.41214,1033.0456,1494.41214,1033.0456Z" transform="translate(0 -31.09596)"/><path class="cls-13" d="M1373.93184,1033.0456s-.9177,9.59265-8.05549,8.1314c7.13779,2.82649,8.05549,12.97173,8.05549,12.97173s.91644-9.59368,8.05435-8.13128C1374.84828,1043.1897,1373.93184,1033.0456,1373.93184,1033.0456Z" transform="translate(0 -31.09596)"/><path class="cls-13" d="M1129.50722,746.481s-.91656,9.59323-8.05435,8.1314c7.13779,2.82718,8.05435,12.97127,8.05435,12.97127s.91759-9.59265,8.05549-8.13082C1130.42481,756.6258,1129.50722,746.481,1129.50722,746.481Z" transform="translate(0 -31.09596)"/><path class="cls-13" d="M1200.23812,1140.66574s-.78144,8.16157-6.85429,6.918c6.07285,2.40571,6.85429,11.03608,6.85429,11.03608s.7803-8.16158,6.85315-6.918C1201.01842,1149.29611,1200.23812,1140.66574,1200.23812,1140.66574Z" transform="translate(0 -31.09596)"/><path class="cls-4" d="M1541.19548,1768.46843,1033.3284,1615.5429V700.68741l507.86708,152.92541Zm-497.82232-160.39151,487.77859,146.87713V861.07777L1043.37316,714.20064Z" transform="translate(0 -31.09596)"/><path class="cls-20" d="M503.23173,1965.36177,62.83811,1810.975l348.80125-192.42577,450.459,161.0568L523.46083,1963.73076A25.02272,25.02272,0,0,1,503.23173,1965.36177Z" transform="translate(0 -31.09596)"/><path class="cls-13" d="M97.08776,1643.78508s66.24493,76.60954-10.36518,160.43049l414.925,155.92166a28.351,28.351,0,0,0,29.68777-6.16545l15.04765-14.56262s52.27514-143.30487,52.27514-146.91063-104.55028-88.32647-104.55028-88.32647-172.14752-20.73035-176.65361-20.73035C312.94761,1683.44171,97.08776,1643.78508,97.08776,1643.78508Z" transform="translate(0 -31.09596)"/><path class="cls-21" d="M548.18538,1913.2725c-2.70384,0-308.24269-100.94566-308.24269-100.94566s304.63752,110.747,305.53885,108.04333S548.18538,1913.2725,548.18538,1913.2725Z" transform="translate(0 -31.09596)"/><path class="cls-20" d="M73.65368,1639.72938v9.46325L511.68286,1799.258s27.03927,33.79925,24.335,79.76536c-2.70372,45.96623-12.6609,82.2839-27.0739,82.78619,0,0,9.107.75138,13.69693-2.09306s15.29207-12.42029,15.29207-12.42029,18.13876-81.7927,19.04023-83.82106c.90135-2.02733-9.46371-68.7238-16.44867-73.68028-6.98484-4.95762-1.12632-12.84348-34.24907-18.92742s-294.04736-123.25216-300.35627-121.67476c-6.3096,1.57729-60.387-.90089-63.31624,0C139.67365,1650.09456,73.65368,1639.72938,73.65368,1639.72938Z" transform="translate(0 -31.09596)"/><path class="cls-20" d="M518.44285,1795.20236s55.76761,94.64944,0,170.58362l371.33328-201.227s43.7129-89.67947-12.61782-146.00973Z" transform="translate(0 -31.09596)"/><polygon class="cls-22" points="518.443 1764.106 73.654 1608.633 475.18 1472.087 877.158 1587.453 518.443 1764.106"/><path class="cls-21" d="M447.24029,1825.84568,123.55718,1713.22436q.16992,3.55335.09933,7.23279Z" transform="translate(0 -31.09596)"/><path class="cls-21" d="M119.88214,1746.80928q-1.34123,4.96146-3.23173,10.05151l237.53122,77.54827Z" transform="translate(0 -31.09596)"/><path class="cls-5" d="M447.57913,1746.12158l449.27409-133.404L559.122,1446.4418,99.398,1585.61175l328.04575,159.10218A28.18811,28.18811,0,0,0,447.57913,1746.12158Z" transform="translate(0 -31.09596)"/><path class="cls-13" d="M872.22184,1468.2483s-70.65226,66.19852,1.13638,138.62742L449.46344,1741.60829c-10.47788,3.33-21.89851,1.25584-29.33329-5.32834l-14.20928-12.58216s-44.03148-123.83046-43.82389-126.94605c.20713-3.11467,109.63068-76.32261,109.63068-76.32261s173.33979-17.91278,177.84645-17.91278S872.22184,1468.2483,872.22184,1468.2483Z" transform="translate(0 -31.09596)"/><path class="cls-21" d="M405.62172,1701.11215c2.70372,0,314.0492-87.227,314.0492-87.227s-311.0078,95.69665-311.75346,93.3601S405.62172,1701.11215,405.62172,1701.11215Z" transform="translate(0 -31.09596)"/><path class="cls-5" d="M895.88865,1464.74416l-.54424,8.17712-446.66183,129.671s-28.98281,29.20561-28.923,68.92477,7.92758,71.1015,22.31153,71.53578c0,0-9.15.64963-13.57622-1.80854-4.42629-2.457-14.57828-10.73247-14.57828-10.73247s-13.43333-70.67614-14.21808-72.42878c-.7843-1.75264,13.41721-59.38447,20.68726-63.66788s1.86546-11.09746,35.33814-16.35424c33.47219-5.25689,301.13712-106.50273,307.35564-105.13967,6.218,1.36306,60.43828-.77927,63.31565,0S895.88865,1464.74416,895.88865,1464.74416Z" transform="translate(0 -31.09596)"/><path class="cls-5" d="M442.15647,1599.08818s-61.21242,81.7871-9.81305,147.40068L72.58589,1572.6087s-38.5542-77.49135,21.01728-126.1669Z" transform="translate(0 -31.09596)"/><polygon class="cls-6" points="442.156 1567.992 895.889 1433.648 502.217 1315.658 93.603 1415.346 442.156 1567.992"/><path class="cls-21" d="M511.59587,1625.56766l330.16178-97.31647q-.37345,3.071-.5152,6.24924Z" transform="translate(0 -31.09596)"/><path class="cls-21" d="M843.5008,1557.27138a84.84524,84.84524,0,0,0,2.65354,8.68627l-241.99273,67.009Z" transform="translate(0 -31.09596)"/><path class="cls-23" d="M154.06594,1472.92128s-60.56725,63.17781-13.22573,132.79005l26.79475,12.83788s-34.45667-83.26951,16.7389-132.35475Z" transform="translate(0 -31.09596)"/><path class="cls-9" d="M551.02639,1583.16707,176.79791,1456.17849l272.4736-157.58056,383.02015,132.4686L567.55313,1581.84527A20.218,20.218,0,0,1,551.02639,1583.16707Z" transform="translate(0 -31.09596)"/><path class="cls-13" d="M192.27916,1319.05473s60.35073,62.89649,3.66439,131.59789l353.38152,128.22772c8.73531,3.16921,18.06676,1.209,23.96769-5.03466l11.27888-11.93366s32.13429-117.51641,31.8596-120.47471c-.27344-2.95715-92.77059-72.53715-92.77059-72.53715s-143.272-17.13911-146.981-17.14243C372.97005,1351.75442,192.27916,1319.05473,192.27916,1319.05473Z" transform="translate(0 -31.09596)"/><path class="cls-21" d="M584.06821,1540.47178c-2.22544-.00229-261.39123-83.04637-261.39123-83.04637s259.16922,91.08391,259.70557,88.86694S584.06821,1540.47178,584.06821,1540.47178Z" transform="translate(0 -31.09596)"/><path class="cls-9" d="M172.68255,1315.71018l.71891,7.76308,371.954,123.44191s24.8256,27.74755,26.09424,65.45172c1.26875,37.70532-4.16612,67.49026-15.99141,67.89092,0,0,7.55308.624,11.11472-1.70566s11.64285-10.1777,11.64285-10.1777,8.71245-67.08159,9.30015-68.745c.58777-1.66222-13.01417-56.38262-19.14006-60.455-6.12645-4.07125-1.904-10.536-29.62982-15.5528s-251.40271-101.33512-256.4759-100.04579-49.77341-.7859-52.116-.04915S172.68255,1315.71018,172.68255,1315.71018Z" transform="translate(0 -31.09596)"/><path class="cls-9" d="M550.61109,1443.59405s53.09843,77.68568,12.968,139.93356l290.35049-164.7842s29.16319-73.53076-21.4855-119.78494Z" transform="translate(0 -31.09596)"/><polygon class="cls-7" points="550.611 1412.498 172.683 1284.614 492.803 1172.914 832.444 1267.863 550.611 1412.498"/><path class="cls-21" d="M494.33341,1468.67583l-274.98813-92.63674q.40945,2.91531.63123,5.93225Z" transform="translate(0 -31.09596)"/><path class="cls-21" d="M218.87305,1403.58579q-.72669,4.069-1.89552,8.24411L418.387,1475.62832Z" transform="translate(0 -31.09596)"/><polygon class="cls-9" points="518.212 1374.442 299.459 1297.712 342.698 1278.889 574.443 1347.582 518.212 1374.442"/><polygon class="cls-24" points="1043.373 617.704 1610.042 769.248 1618.623 1768.342 1600.065 1783.017 1600.065 773.711 1043.373 617.704"/><path class="cls-20" d="M1020.841,1921.87269c5.27026,1.55957,11.27613-.67867,13.69293-5.10943,8.9006-16.31411,32.22745-54.91244,69.98409-88.85687,1.56517-1.4065,8.97651-6.36641,38.58164-11.06614,20.98824-3.33119,49.48145-5.978,84.68847-7.86688,59.764-3.206,139.41995-4.29118,236.75539-3.22613,165.9631,1.8162,327.73093,9.3638,329.34628,9.4397l2.25059-18.04332c-1.61981-.0759-163.84215-7.64465-330.25507-9.46542-97.879-1.07054-178.08652.02572-238.39418,3.26088-104.14275,5.58725-128.586,16.2717-138.24459,24.95557-40.32753,36.25526-64.64456,76.479-74.14016,94.01318-2.60438,4.8081.02241,10.2759,5.73461,11.96486Z" transform="translate(0 -31.09596)"/><path class="cls-25" d="M1812.824,1978.24422c-5.64419.75572-10.79385-2.30191-11.73933-6.98049-3.48185-17.225-13.93631-58.30719-39.967-96.94347-1.07957-1.602-6.73381-7.52188-34.142-16.41574-19.432-6.30388-46.41044-13.03094-80.18741-19.99349-57.33712-11.8197-134.775-24.46-230.16458-37.5702-162.6453-22.35348-323.02446-38.50128-324.62529-38.662l3.56335-17.94616c1.60529.16073,162.43427,16.35424,325.52059,38.768,95.92207,13.18389,173.89582,25.91569,231.75421,37.8426,99.91307,20.59638,120.36988,34.583,127.02882,44.46691,27.80333,41.26649,38.70657,84.08123,42.38047,102.58444,1.00686,5.07376-3.30329,10.03024-9.42073,10.84963Z" transform="translate(0 -31.09596)"/><polygon class="cls-26" points="1112.522 1785.745 1302.405 1615.613 1367.042 1661.042 1174.435 1833.953 1112.522 1785.745"/><polygon class="cls-26" points="1368.983 1671.529 1187.392 1837.002 1201.472 1842.11 1376.748 1681.97 1368.983 1671.529"/><path class="cls-26" d="M1517.56044,1847.26031s173.352-165.10576,175.02775-165.34685c1.67445-.2412,55.54425,24.07823,55.54425,24.07823l-186.36527,181.53259Z" transform="translate(0 -31.09596)"/><path class="cls-26" d="M1571.48831,1891.47721c1.986-2.16679,180.386-178.27068,180.386-178.27068l9.07916,11.30951-179.86922,172.53951Z" transform="translate(0 -31.09596)"/><ellipse class="cls-27" cx="1246.37336" cy="1760.76453" rx="139.34827" ry="116.73356" transform="translate(-236.27995 162.67226) rotate(-8.12268)"/><ellipse class="cls-27" cx="1644.06113" cy="1790.01586" rx="139.34848" ry="116.73378" transform="translate(-236.38517 219.10968) rotate(-8.12126)"/><path class="cls-22" d="M1793.34511,1787.50627l-2.7507-.20313c.99132-28.12935-9.3247-55.01956-29.76814-76.864-23.66967-25.28949-58.06838-40.7897-96.85875-43.642-38.79026-2.85324-77.33062,7.2808-108.51989,28.53573-25.75828,17.55556-43.94553,40.96277-52.49782,67.12069-26.59882-20.16428-56.56461-20.41657-78.35658-16.448a150.245,150.245,0,0,0-31.62457,9.61494c.32933-27.24525-9.97675-53.219-29.83067-74.43154-23.66967-25.29051-58.06838-40.79084-96.85875-43.643-38.79037-2.85336-77.32948,7.28068-108.51875,28.53676-26.93822,18.35814-45.5978,43.11733-53.61191,70.7309l-2.75174-.20313c-10.71348-.78807-20.58975,5.94231-22.05878,15.0337h0c-1.468,9.09025,6.027,17.09888,16.74051,17.887l3.73082.27355c.65306,25.8208,10.89433,50.33662,29.79934,70.53668,23.66853,25.28937,58.06724,40.7897,96.85761,43.643,38.79151,2.85336,77.33062-7.28182,108.51989-28.53687,28.98224-19.75241,48.38531-46.91171,55.253-77.06382l.11946.14289a124.38282,124.38282,0,0,1,38.63068-13.97768c27.531-4.82582,50.5465,2.40239,68.409,21.48722l.61066-.41633c-3.14257,30.689,7.12773,60.29428,29.287,83.97276,23.66956,25.28948,58.06827,40.78981,96.85864,43.64316,38.79037,2.85222,77.33074-7.28194,108.5199-28.53687,24.91-16.97725,42.74-39.42892,51.6215-64.54751l3.73082.27458c10.71348.78818,20.58963-5.9422,22.05878-15.0337C1811.55362,1796.30194,1804.05849,1788.29331,1793.34511,1787.50627Zm-416.90377-17.17478c-9.83042,60.85247-76.17755,106.06846-147.89748,100.79271-71.71994-5.27473-122.06994-59.07411-112.23849-119.92657,9.83054-60.85247,76.17641-106.06846,147.89646-100.79271C1335.92177,1655.67964,1386.27291,1709.479,1376.44134,1770.33149Zm397.68829,29.25133c-9.83043,60.85247-76.17755,106.06846-147.89749,100.79271-71.71993-5.27473-122.06993-59.07422-112.23951-119.92669.36054-2.22818.80487-4.43293,1.31391-6.61755l.12609-.086c-.0279-.03018-.05693-.05807-.08482-.08825,13.48088-57.38628,77.51821-99.0779,146.54231-94.00082C1733.61005,1684.93086,1783.96005,1738.72921,1774.12963,1799.58282Z" transform="translate(0 -31.09596)"/><path class="cls-28" d="M748.507,1529.18227l-9.04958,20.18668a3.30768,3.30768,0,0,0,1.66554,4.37155l47.26676,21.18909a3.7486,3.7486,0,0,0,4.66452-5.48118l-18.29161-28.49663S760.30263,1543.59971,748.507,1529.18227Z" transform="translate(0 -31.09596)"/><path class="cls-20" d="M540.189,1278.02727s-14.56136,68.52055,51.5049,84.79S741.1363,1380.74,741.1363,1380.74l1.54174,159.60789,34.77548,3.982s103.76814-215.07739-18.3955-257.43659l-111.77851-6.5061-45.8048-6.19117s-45.834-14.442-46.52-12.28518C554.26875,1264.06639,541.21494,1279.19154,540.189,1278.02727Z" transform="translate(0 -31.09596)"/><path class="cls-28" d="M798.39924,1095.404c9.94153-12.54878,6.12532-23.07353-7.35944-41.67951-20.468-28.24092-45.62727-32.473-67.15532-51.35126-7.53572-6.60761-19.98287-27.51435-28.17451-42.10475a215.82283,215.82283,0,0,1-11.13541-23.3632c-18.30291-44.32127-61.06463-37.10975-61.06463-37.10975s2.20417,56.06677,2.36775,57.633c.0335.316,1.76945,1.22463,4.49272,2.46378-8.53547,8.40929-22.33336,22.061-25.0556,26.58316-3.9591,6.5764-20.20338,35.10768-20.20338,35.10768s28.15222,78.16339,30.80187,100.02235c1.40158,11.56523,18.84317,14.87847,38.52139,15.97472,12.45047,23.96095,29.72961,48.23122,48.12285,46.63816,35.77628-3.09776,34.5159-16.92363,46.22571-28.26893,11.71029-11.34415,36.6174.58391,52.63854-18.88272C813.66008,1122.196,792.19972,1103.22837,798.39924,1095.404Z" transform="translate(0 -31.09596)"/><path class="cls-29" d="M670.199,1141.40591s-12.45332,126.49955-.73628,142.81927H621.658V1133.874Z" transform="translate(0 -31.09596)"/><path class="cls-28" d="M546.34277,923.92568s-13.98088,21.03054-21.11318,29.36793c-17.94445,20.977-20.25585,14.39515-31.40807,32.43847-12.03791,19.47327.14129,31.667,7.06418,37.28s-4.66064,26.37328,8.238,38.01c16.88454,15.23467,32.50364.86855,44.11917,9.4029,11.61484,8.53434,14.15567,21.18463,41.68888,18.79458s27.26309-92.41234,27.26309-92.41234-22.53478-47.72652-23.429-48.12067C597.87111,948.29243,546.34277,923.92568,546.34277,923.92568Z" transform="translate(0 -31.09596)"/><path class="cls-29" d="M617.97688,1051.88145s-45.95116-8.454-67.08218-7.74056,12.80657,55.657,12.80657,55.657l34.51037.7659s21.15617-23.62841,19.76524-26.37786c-1.391-2.7507.06525-20.77722.06525-20.77722Z" transform="translate(0 -31.09596)"/><path class="cls-29" d="M577.004,1008.03412l-12.12113,36.78773s10.55265,21.81758,42.86836,12.40692c0,0-3.6867-7.61905,1.25869-23.30914C614.06348,1017.888,577.004,1008.03412,577.004,1008.03412Z" transform="translate(0 -31.09596)"/><path class="cls-30" d="M577.004,1008.03412l-5.6883,17.18484c3.387,12.55987,14.38509,21.11319,35.1255,23.769a49.89779,49.89779,0,0,1,2.56872-15.06834C614.06348,1017.888,577.004,1008.03412,577.004,1008.03412Z" transform="translate(0 -31.09596)"/><path class="cls-31" d="M650.93662,981.10037c-2.62281,5.97352-.87417,12.51745,3.90492,14.61509,4.779,2.09866,10.77931-1.04379,13.4021-7.01731,2.62233-5.97466.87414-12.5186-3.90492-14.61623S653.55882,975.12571,650.93662,981.10037Z" transform="translate(0 -31.09596)"/><path class="cls-29" d="M648.26294,1016.38546a49.2039,49.2039,0,0,0,4.01215-8.15929,93.39852,93.39852,0,0,0,5.66876-23.078c.19147-1.54048.4711-3.06541.77915-4.58588a50.47031,50.47031,0,1,0-99.91353-11.38771,10.90589,10.90589,0,0,0-9.8008-1.02595c-6.05835,2.5151-8.42108,10.69223-5.27748,18.26543s10.60352,11.67349,16.66128,9.1585a9.61,9.61,0,0,0,2.29734-1.36867c1.85873,24.76811,21.59045,44.3742,45.87581,44.61986a45.28384,45.28384,0,0,0,31.05141-11.97162,22.32575,22.32575,0,0,0,1.74864-1.555A43.73514,43.73514,0,0,0,648.26294,1016.38546Z" transform="translate(0 -31.09596)"/><path class="cls-31" d="M636.73406,971.92187a30.89356,30.89356,0,0,0-1.61649,8.50428,23.828,23.828,0,0,0,.15569,4.43624,11.23467,11.23467,0,0,0,1.52665,4.53238l.4192.53807.37618.4632a4.4315,4.4315,0,0,1,.499.63409,3.26316,3.26316,0,0,1,.551,1.38535,3.88916,3.88916,0,0,1-.96572,2.98173c-1.531,1.909-4.2163,2.9583-7.01776,3.52872a9.774,9.774,0,0,0,8.57447-2.0518,5.90432,5.90432,0,0,0,2.001-4.70087,4.61419,4.61419,0,0,0-.27343-1.35518,5.297,5.297,0,0,0-.56939-1.23252,6.82986,6.82986,0,0,0-.79368-1.04813,4.23894,4.23894,0,0,1-.28463-.37072l-.23229-.30247a10.693,10.693,0,0,1-1.25252-3.44389,36.14417,36.14417,0,0,1-.57659-4.03444C637.01481,977.62412,636.906,974.80426,636.73406,971.92187Z" transform="translate(0 -31.09596)"/><path class="cls-28" d="M619.65417,977.78267a4.40532,4.40532,0,1,1-4.361-4.44973A4.40539,4.40539,0,0,1,619.65417,977.78267Z" transform="translate(0 -31.09596)"/><path class="cls-28" d="M652.37442,978.58641a4.40526,4.40526,0,1,1-4.36034-4.44974A4.40537,4.40537,0,0,1,652.37442,978.58641Z" transform="translate(0 -31.09596)"/><path class="cls-32" d="M619.00226,1007.054a14.08692,14.08692,0,0,1,11.63208,1.54836s6.09641-3.81564,10.89937-.17192a11.58018,11.58018,0,0,1-12.24391,8.46621A10.35073,10.35073,0,0,1,619.00226,1007.054Z" transform="translate(0 -31.09596)"/><path class="cls-31" d="M613.756,1003.80216a34.623,34.623,0,0,0,7.36449,4.52335,25.95981,25.95981,0,0,0,8.21734,2.19811,22.12833,22.12833,0,0,0,8.41261-.93222,31.09645,31.09645,0,0,0,7.71724-3.85244,26.35256,26.35256,0,0,1-3.48345,2.67022,24.3127,24.3127,0,0,1-3.95691,1.98264,20.71546,20.71546,0,0,1-4.31578,1.10963,22.06352,22.06352,0,0,1-4.46813.11729,22.93226,22.93226,0,0,1-8.48851-2.53408A25.06462,25.06462,0,0,1,613.756,1003.80216Z" transform="translate(0 -31.09596)"/><path class="cls-28" d="M621.293,964.61432a45.39673,45.39673,0,0,0-6.49433-1.30945,22.365,22.365,0,0,0-6.12029.09042,20.673,20.673,0,0,0-5.82386,1.77494c-1.00357.35391-1.86766.988-2.8791,1.45462-.97234.5303-1.86809,1.19114-2.95989,1.718a18.54684,18.54684,0,0,1,1.84694-3.00848,15.02036,15.02036,0,0,1,2.57478-2.495,14.23017,14.23017,0,0,1,6.72535-2.87462,14.86916,14.86916,0,0,1,7.27017.69662A13.5563,13.5563,0,0,1,621.293,964.61432Z" transform="translate(0 -31.09596)"/><path class="cls-28" d="M641.40648,964.61764a13.54644,13.54644,0,0,1,6.29782-3.20944,14.8527,14.8527,0,0,1,7.30023.19319,14.23424,14.23424,0,0,1,6.32628,3.6716,15.05461,15.05461,0,0,1,2.25162,2.79083,18.45244,18.45244,0,0,1,1.46686,3.21058c-1.01921-.65638-1.828-1.42113-2.72828-2.06631-.94779-.58608-1.72751-1.32065-2.68088-1.794a20.69315,20.69315,0,0,0-5.565-2.47155,22.35855,22.35855,0,0,0-6.06337-.83392A45.45461,45.45461,0,0,0,641.40648,964.61764Z" transform="translate(0 -31.09596)"/><path class="cls-6" d="M642.74325,1155.6336s-8.97034,26.22707-10.60124,40.15675c-4.05066,34.59292,3.441,64.29407,10.60124,83.984,10.04316,27.61814-75.06678,12.27739-76.74066,11.44017-1.674-.83608-71.97508-28.03664-71.97508-28.03664l-5.29861-54.21594-8.09185-53.3283,3.766-31.38463Z" transform="translate(0 -31.09596)"/><path class="cls-29" d="M507.91752,1079.39134s10.89261.94663,9.70879,19.89085c-1.1845,18.94411-10.02749,55.00618-10.02749,55.00618s-85.903,165.09455-104.73055,181.15421a5.93854,5.93854,0,0,1-3.64988,1.40205l-60.13859,1.7627h0a18.1624,18.1624,0,0,1,9.95331-6.766l26.98005-7.158a4.01809,4.01809,0,0,0,2.49282-1.95246l8.64431-15.77594,65.14982-173.77522c6.646-15.4825,22.45728-24.33052,33.32143-37.20851C493.56032,1086.56149,502.21915,1078.45913,507.91752,1079.39134Z" transform="translate(0 -31.09596)"/><path class="cls-6" d="M617.97688,1051.88145s-31.2389,36.46057-67.08218-7.74056c0,0-39.15993-3.19058-68.03335,17.31321-28.87386,20.50482-46.16319,66.56135-46.16319,66.56135s52.30806,26.36334,65.27991,27.61815h145.206s22.17812-1.67342,43.51971-12.55324C690.70377,1143.08036,687.02268,1069.87459,617.97688,1051.88145Z" transform="translate(0 -31.09596)"/><path class="cls-13" d="M525.22959,1100.56375c-1.49476,4.47419-2.81872,8.99983-4.15891,13.52215-1.34742,4.52-2.56027,9.078-3.76317,13.64046-1.15034,4.57581-2.3113,9.15163-3.31154,13.77-.99189,4.61938-1.9664,9.24881-2.70772,13.93516l1.10575-1.10963a27.73185,27.73185,0,0,1-4.79518-.03349c-1.64885-.10711-3.30158-.35163-4.95042-.5894-3.28866-.58493-6.5875-1.2124-9.82929-2.12324l-2.4392-.64529-2.41634-.74121c-1.60746-.50686-3.22841-.96788-4.81747-1.54173l-4.788-1.65433-4.73106-1.82969c-3.167-1.18782-6.25644-2.58323-9.39283-3.867l-9.25943-4.21871-9.17507-4.43853c-3.01808-1.56174-6.045-3.11456-9.10157-4.62383,2.87681,1.81963,5.78433,3.59571,8.69907,5.36286q4.409,2.58371,8.89272,5.05479c3.01191,1.59969,6.05388,3.15137,9.1082,4.67961l4.65012,2.15571c1.54779.72337,3.09558,1.4512,4.68853,2.07752a147.46219,147.46219,0,0,0,19.38855,6.83189l2.491.672,2.52186.57271c1.67169.41861,3.38753.6765,5.08987.97566,1.71812.23445,3.43612.47439,5.18373.57716a29.39752,29.39752,0,0,0,5.39464-.03018l.95337-.10711.153-1.00252c1.40993-9.25109,3.28991-18.472,5.249-27.67164l2.99065-13.80233Z" transform="translate(0 -31.09596)"/><path class="cls-13" d="M635.63106,1089.97189q3.07032,8.03434,5.56771,16.15339a141.55072,141.55072,0,0,1,4.03615,16.44021,79.00568,79.00568,0,0,1,1.1158,8.34241,61.11777,61.11777,0,0,1,.20874,8.38369c-.20759,5.59057-8.49137,31.89138-10.9284,37.09683,3.43887-4.61823,12.45893-31.14126,13.06732-36.92491a60.30291,60.30291,0,0,0-.758-17.38134c-.54252-2.84672-1.17833-5.67207-1.96755-8.45067-.82383-2.76853-1.699-5.51809-2.75228-8.20055A88.11414,88.11414,0,0,0,635.63106,1089.97189Z" transform="translate(0 -31.09596)"/><path class="cls-28" d="M558.80947,969.17459s53.65158-12.94166,79.2792-49.3956c0,0,.446-33.19751-48.80438-25.66729C541.4287,901.42874,530.22687,947.99773,558.80947,969.17459Z" transform="translate(0 -31.09596)"/><path class="cls-28" d="M687.25487,1526.77988l-9.04958,20.18668a3.309,3.309,0,0,0,1.66553,4.37269l47.26619,21.18794a3.74793,3.74793,0,0,0,4.66453-5.48l-18.291-28.49778S699.05053,1541.19732,687.25487,1526.77988Z" transform="translate(0 -31.09596)"/><path class="cls-22" d="M491.66593,1261.213c-14.03507,18.43176-16.98948,43.3383-6.7393,64.11438,7.11825,14.4275,20.55443,27.87706,45.32985,33.97792,66.06626,16.26942,149.44185,17.92273,149.44185,17.92273l1.54173,159.60778,34.77548,3.982S819.78429,1325.74053,697.62,1283.38121l-111.77848-6.506-45.80436-6.19116s-45.83385-14.442-46.51984-12.28529A14.40416,14.40416,0,0,1,491.66593,1261.213Z" transform="translate(0 -31.09596)"/><path class="cls-13" d="M698.26863,1381.48689c-1.77333-.32157-3.54666-.623-5.29484-1.03373-1.74933-.40524-3.4784-.87975-5.18865-1.39324-.85734-.26795-1.72086-.55591-2.566-.86855a19.49034,19.49034,0,0,0,2.60335-.74795,22.09761,22.09761,0,0,0,4.75106-2.43131,26.88784,26.88784,0,0,0,3.97362-3.49751,26.46638,26.46638,0,0,0,3.114-4.21185l-1.761,1.91222c-.63135.59054-1.21846,1.21789-1.876,1.76716a26.06478,26.06478,0,0,1-4.09251,3.03534,24.57055,24.57055,0,0,1-4.56072,2.13994,17.56622,17.56622,0,0,1-4.83428.97462l-2.87405.1038,2.55077,1.18554a33.63008,33.63008,0,0,0,5.22614,1.82854,52.421,52.421,0,0,0,5.3472,1.14758c1.79677.29139,3.59628.546,5.40813.67765,1.81071.134,3.62142.22211,5.43259.21548C701.83416,1382.02941,700.04356,1381.80833,698.26863,1381.48689Z" transform="translate(0 -31.09596)"/><path class="cls-33" d="M1018.777,521.49685a68.35565,68.35565,0,0,1,83.79866-50.76141,100.62191,100.62191,0,0,1,120.98716-53.445,123.94606,123.94606,0,0,1,222.63379,21.65526,85.02314,85.02314,0,0,1,126.36111,74.30088c0,2.7842-.144,5.53479-.40524,8.25028Z" transform="translate(0 -31.09596)"/><path class="cls-33" d="M826.7547,473.48557a18.85215,18.85215,0,0,0-23.10977-13.99883,27.7503,27.7503,0,0,0-33.36384-14.73843,34.18124,34.18124,0,0,0-61.39614,5.97192,23.44721,23.44721,0,0,0-34.8469,20.49029c0,.768.03953,1.526.11155,2.27505Z" transform="translate(0 -31.09596)"/><path class="cls-33" d="M1728.658,188.37894a27.02874,27.02874,0,0,0-33.1351-20.07169,39.78725,39.78725,0,0,0-47.84038-21.13273,49.00942,49.00942,0,0,0-88.03188,8.56235,33.61943,33.61943,0,0,0-49.96488,29.38016c0,1.10071.05693,2.18806.15958,3.26191Z" transform="translate(0 -31.09596)"/><path class="cls-33" d="M1950.008,563.36886a93.1682,93.1682,0,0,0-140.4314,22.65378A75.66861,75.66861,0,0,0,1718.592,626.214a51.40435,51.40435,0,0,0-63.01812,38.17354H1951.706c.06139-.6078.12392-1.21628.18416-1.82294C1955.05945,630.671,1955.02252,595.80334,1950.008,563.36886Z" transform="translate(0 -31.09596)"/><path class="cls-33" d="M230.10563,642.66818H558.88985a50.65064,50.65064,0,0,0-62.08991-37.61147,74.55511,74.55511,0,0,0-89.64266-39.59924,92.27454,92.27454,0,0,0-32.06673-31.72837C318.35173,571.1564,260.9706,608.66967,230.10563,642.66818Z" transform="translate(0 -31.09596)"/><path class="cls-3" d="M1938.14587,516.18978c-10.65438-28.71212-27.27772-52.15225-51.69968-64.78642-24.06486-12.44761-52.58161-12.00557-73.90354-30.44133-13.07564-11.30619-21.33644-27.93227-26.0843-46.61357-99.88723-.09488-200.03579,4.24648-296.84093-18.65673-8.07218-1.90948-16.43575-4.18007-22.61469-9.71325-13.33787-11.9459-10.56716-34.97748,1.382-48.31215,11.95035-13.33514,30.05952-19.116,47.49893-23.17619,88.0999-20.5087,179.13912-11.21189,269.95291-5.15916,2.72612-24.18808,5.163-48.33329,2.74167-72.45565a175.36923,175.36923,0,0,0-3.93167-23.14932c-89.1638,3.20887-178.4761-9.36323-267.698-6.95809-10.21109.27515-21.2003,1.03144-29.11621,7.48667-7.12,5.806-10.27247,15.032-15.1966,22.78718-14.81708,23.33463-44.22468,31.82051-71.04458,38.50951q-145.58785,36.31332-291.17674,72.62643c-26.39341,6.583-54.11866,13.88783-73.57535,32.8995-33.79582,33.02284-25.80514,97.85282,14.9969,121.68207,23.93088,13.97654,53.19547,14.06856,80.90735,13.77q64.56213-.695,129.12519-1.38924c29.44452-.3171,59.83223-.46057,87.02947,10.82563,25.31395,10.50464,45.95046,30.18115,71.15729,40.93819,27.569,11.76448,58.4814,12.03631,88.45495,12.12387q165.82736.48406,331.6538.969c25.5172.07419,51.84247-.0056,75.35256-9.92873A90.21513,90.21513,0,0,0,1938.14587,516.18978Z" transform="translate(0 -31.09596)"/><path class="cls-22" d="M261.08948,1418.8304s-22.55946,22.88263-12.27133,53.747c0,0,6.85876-16.00376,13.71751-20.57626,0,0-1.14313,19.43313,6.85875,27.435,0,0,7.06474-43.06143,28.68079-47.2511Z" transform="translate(0 -31.09596)"/><path class="cls-7" d="M518.44285,1670.1004s13.87047,16.24153,12.72735,36.8178c0,0,7.61674-10.52591,9.52393-18.40947a28.915,28.915,0,0,1,12.19546,12.69384s8.54439-21.78969-.30032-40.61663Z" transform="translate(0 -31.09596)"/><path class="cls-6" d="M304.24579,1776.093s-23.42012,31.4203-15.41824,81.71783c0,0,8.00188-20.57627,26.29189-32.00752,0,0,8.00188,33.15064,12.57438,44.5819,0,0,18.27377-66.69876,40.001-72.21559Z" transform="translate(0 -31.09596)"/></g></g></svg>